<?xml version="1.0" encoding="UTF-8"?>
<svg xmlns="http://www.w3.org/2000/svg" version="1.1" xmlns:xlink="http://www.w3.org/1999/xlink" viewBox="0 0 65 65">
  <defs>
    <style>
      .cls-1 {
        fill: url(#linear-gradient-2);
      }

      .cls-2 {
        fill: #262626;
      }

      .cls-3 {
        fill: none;
      }

      .cls-4, .cls-5 {
        fill: #ccbbad;
      }

      .cls-5 {
        opacity: .3;
      }

      .cls-6 {
        fill: #d9c2af;
      }

      .cls-7 {
        fill: url(#linear-gradient);
      }

      .cls-8 {
        clip-path: url(#clippath);
      }
    </style>
    <clipPath id="clippath">
      <path class="cls-3" d="M32.5,65h0C14.6,65,0,50.4,0,32.5S14.6,0,32.5,0s32.5,14.6,32.5,32.5-14.6,32.5-32.5,32.5Z"/>
    </clipPath>
    <linearGradient id="linear-gradient" x1="31.4" y1="20.5" x2="57.4" y2="20.5" gradientTransform="translate(0 66) scale(1 -1)" gradientUnits="userSpaceOnUse">
      <stop offset="0" stop-color="#262626"/>
      <stop offset=".4" stop-color="#373737"/>
      <stop offset="1" stop-color="#4d4d4d"/>
    </linearGradient>
    <linearGradient id="linear-gradient-2" x1="25.5" y1="12.9" x2="25.5" y2="1.7" gradientTransform="translate(0 66) scale(1 -1)" gradientUnits="userSpaceOnUse">
      <stop offset="0" stop-color="#1a1a1a"/>
      <stop offset=".1" stop-color="#1d1d1d"/>
      <stop offset="1" stop-color="#333"/>
    </linearGradient>
  </defs>
  <!-- Generator: Adobe Illustrator 28.7.8, SVG Export Plug-In . SVG Version: 1.2.0 Build 200)  -->
  <g>
    <g id="Layer_1">
      <path class="cls-5" d="M32.5,0h0c17.9,0,32.5,14.6,32.5,32.5h0c0,17.9-14.6,32.5-32.5,32.5h0C14.6,65,0,50.4,0,32.5h0C0,14.6,14.6,0,32.5,0Z"/>
      <g class="cls-8">
        <g>
          <path class="cls-6" d="M53.1,27.5s.7,4.7,2,6.9c1.3,2.4,2.8,4.5,0,5.3-2.7.8-1.2,2.1-1.6,3.2s-1.9,1.4-1.9,2.5.4,1.6-.7,2.3-1.6,2.7-1.6,4.2c0,1.7-2.9,3.5-5.7,2.1-1.6-.8-4.5-1-6.9-.7-1,.1-1.1,1.2-1.6,2.4s-.3,8.8-.3,8.8l-16.7-2,1.9-7.3c.7-3.6-4.9-3-4.6-10.8l15.9-27.2c3.5-2.4,8-3.1,12-1.8l9.6,5.4v6.8c0,0,0,0,0,0Z"/>
          <path class="cls-7" d="M56,36c-5.1.8-10,1.7-15.6.4-6.2-1.4-9.7,11-8.8,12.4,1.4,2.1,6.5,4.7,13.2,6.2,4,.9,7.4-5,8.5-7.5,1.2-3,6.7-12,2.7-11.4h0Z"/>
          <path class="cls-2" d="M53.3,21.3c-1.3,12.3-12.6,12.4-16,23,1.3-4.7,4.8-8.2,8.5-11.3,3.8-2.9,6.2-7.1,6.5-11.9h1Z"/>
          <path class="cls-2" d="M8.6,25.6c-4.1,14.7,5.5,22.8,5.5,22.8l14.5,6.5c-1-32,27.6-23,24.8-34.7-2.2-8.8-8.4-12.2-16.3-13.6-7.7-1.4-23.4.8-28.4,19.1h0Z"/>
          <path class="cls-1" d="M12.1,54.8s2.6-2.9,5.5-1c3.3,2.2,9.8,4.8,15.7,5.3s2.4.2,3.4.2c3.5.1,6.8,1.8,8.8,4.7s.2.3.2.3c0,.2-40.5-.6-40.5-.6l6.9-8.9h0Z"/>
        </g>
      </g>
      <path class="cls-4" d="M32.5,2.4c16.6,0,30.1,13.5,30.1,30.1s-13.5,30.1-30.1,30.1S2.4,49.1,2.4,32.5,15.9,2.4,32.5,2.4M32.5,0h0C14.6,0,0,14.6,0,32.5s14.6,32.5,32.5,32.5h0c18,0,32.5-14.5,32.5-32.5S50.5,0,32.5,0h0Z"/>
    </g>
  </g>
</svg>