<svg width="65" height="65" viewBox="0 0 65 65" fill="none" xmlns="http://www.w3.org/2000/svg">
<g clip-path="url(#clip0_177_16196)">
<path opacity="0.3" d="M32.5 0C50.4 0 65 14.6 65 32.5C65 50.4 50.4 65 32.5 65C14.6 65 0 50.4 0 32.5C0 14.6 14.6 0 32.5 0Z" fill="#BDBDBD"/>
<mask id="mask0_177_16196" style="mask-type:luminance" maskUnits="userSpaceOnUse" x="0" y="0" width="65" height="65">
<path d="M32.5 65C14.6 65 0 50.4 0 32.5C0 14.6 14.6 0 32.5 0C50.4 0 65 14.6 65 32.5C65 50.4 50.4 65 32.5 65Z" fill="white"/>
</mask>
<g mask="url(#mask0_177_16196)">
<path d="M53.1003 27.5C53.1003 27.5 53.8003 32.2 55.1003 34.4C56.4003 36.8 57.9003 38.9 55.1003 39.7C52.4003 40.5 53.9003 41.8 53.5003 42.9C53.1003 44 51.6003 44.3 51.6003 45.4C51.6003 46.5 52.0003 47 50.9003 47.7C49.8003 48.4 49.3003 50.4 49.3003 51.9C49.3003 53.6 46.4003 55.4 43.6003 54C42.0003 53.2 39.1003 53 36.7003 53.3C35.7003 53.4 35.6003 54.5 35.1003 55.7C34.6003 56.9 34.8003 64.5 34.8003 64.5L18.1003 62.5L20.0003 55.2C20.7003 51.6 17.4004 45.9003 14.9995 41.4999C12.5986 37.0994 10.5419 27.5001 14.9997 19.5C19.4576 11.4999 26.9998 4.99923 39.4998 7.99971C51.9998 11.0002 52.9003 20.8 52.9003 20.8L53.1003 27.5Z" fill="#D9C2AF"/>
<path d="M11 36.5002L54.4997 21.5C53.9998 15.9998 50.7999 10.5001 44.4997 7.00009C38.1995 3.50012 23.4996 4.5002 16.5 11.5C9.50038 18.4998 7.99983 25.0002 11 36.5002Z" fill="#272727"/>
<path d="M12.1002 54.7997C12.1002 54.7997 14.7002 51.8997 17.6002 53.7997C20.9002 55.9997 27.4002 58.5997 33.3002 59.0997C39.2002 59.5997 35.7002 59.2997 36.7002 59.2997C40.2002 59.3997 43.5002 61.0997 45.5002 63.9997C47.5002 66.8997 45.7002 64.2997 45.7002 64.2997C45.7002 64.4997 5.2002 63.6997 5.2002 63.6997L12.1002 54.7997Z" fill="url(#paint0_linear_177_16196)"/>
</g>
<path d="M32.5 2.4C49.1 2.4 62.6 15.9 62.6 32.5C62.6 49.1 49.1 62.6 32.5 62.6C15.9 62.6 2.4 49.1 2.4 32.5C2.4 15.9 15.9 2.4 32.5 2.4ZM32.5 0C14.6 0 0 14.6 0 32.5C0 50.4 14.6 65 32.5 65C50.5 65 65 50.5 65 32.5C65 14.5 50.5 0 32.5 0Z" fill="#BDBDBD"/>
</g>
<defs>
<linearGradient id="paint0_linear_177_16196" x1="25.5002" y1="53.0997" x2="25.5002" y2="64.2997" gradientUnits="userSpaceOnUse">
<stop stop-color="#1A1A1A"/>
<stop offset="0.1" stop-color="#1D1D1D"/>
<stop offset="1" stop-color="#333333"/>
</linearGradient>
<clipPath id="clip0_177_16196">
<rect width="65" height="65" fill="white"/>
</clipPath>
</defs>
</svg>
