<svg width="65" height="65" viewBox="0 0 65 65" fill="none" xmlns="http://www.w3.org/2000/svg">
<g clip-path="url(#clip0_177_16212)">
<path opacity="0.3" d="M32.5 0C50.4 0 65 14.6 65 32.5C65 50.4 50.4 65 32.5 65C14.6 65 0 50.4 0 32.5C0 14.6 14.6 0 32.5 0Z" fill="#BDBDBD"/>
<mask id="mask0_177_16212" style="mask-type:luminance" maskUnits="userSpaceOnUse" x="0" y="0" width="65" height="65">
<path d="M32.5 65C14.6 65 0 50.4 0 32.5C0 14.6 14.6 0 32.5 0C50.4 0 65 14.6 65 32.5C65 50.4 50.4 65 32.5 65Z" fill="white"/>
</mask>
<g mask="url(#mask0_177_16212)">
<path d="M53.1 27.5C53.1 27.5 53.8 32.2 55.1 34.4C56.4 36.8 57.9 38.9 55.1 39.7C52.4 40.5 53.9 41.8 53.5 42.9C53.1 44 51.6 44.3 51.6 45.4C51.6 46.5 52 47 50.9 47.7C49.8 48.4 49.3 50.4 49.3 51.9C49.3 53.6 46.4 55.4 43.6 54C42 53.2 39.1 53 36.7 53.3C35.7 53.4 35.6 54.5 35.1 55.7C34.6 56.9 34.8 64.5 34.8 64.5L18.1 62.5L20 55.2C20.7 51.6 17.4005 45.8999 14.9992 41.4999C12.5978 37.0999 11.4998 26.5003 14.9991 19C18.4985 11.4997 26.9995 4.9993 39.4995 7.99977C51.9995 11.0002 52.9 20.8 52.9 20.8L53.1 27.5Z" fill="#D9C2AF"/>
<path d="M12.1002 54.7997C12.1002 54.7997 14.7002 51.8997 17.6002 53.7997C20.9002 55.9997 27.4002 58.5997 33.3002 59.0997C39.2002 59.5997 35.7002 59.2997 36.7002 59.2997C40.2002 59.3997 43.5002 61.0997 45.5002 63.9997C47.5002 66.8997 45.7002 64.2997 45.7002 64.2997C45.7002 64.4997 5.2002 63.6997 5.2002 63.6997L12.1002 54.7997Z" fill="url(#paint0_linear_177_16212)"/>
</g>
<path d="M32.5 2.4C49.1 2.4 62.6 15.9 62.6 32.5C62.6 49.1 49.1 62.6 32.5 62.6C15.9 62.6 2.4 49.1 2.4 32.5C2.4 15.9 15.9 2.4 32.5 2.4ZM32.5 0C14.6 0 0 14.6 0 32.5C0 50.4 14.6 65 32.5 65C50.5 65 65 50.5 65 32.5C65 14.5 50.5 0 32.5 0Z" fill="#BDBDBD"/>
<path d="M39.9994 25.9996L53.9994 26.9996C54.4996 25.8329 54.9991 20.5002 52.4991 15.5002C49.5926 9.68714 43.53 7.47391 34.9991 6.99996C25.9985 6.4999 18.4989 9.50019 12.9997 20C8.54355 28.5083 9.49964 37.4996 11.4992 45.4996H33L40.4994 18.4996L39.9994 25.9996Z" fill="#272727"/>
</g>
<defs>
<linearGradient id="paint0_linear_177_16212" x1="25.5002" y1="53.0997" x2="25.5002" y2="64.2997" gradientUnits="userSpaceOnUse">
<stop stop-color="#1A1A1A"/>
<stop offset="0.1" stop-color="#1D1D1D"/>
<stop offset="1" stop-color="#333333"/>
</linearGradient>
<clipPath id="clip0_177_16212">
<rect width="65" height="65" fill="white"/>
</clipPath>
</defs>
</svg>
