<svg width="840" height="1188" viewBox="0 0 840 1188" fill="none" xmlns="http://www.w3.org/2000/svg">
<g style="mix-blend-mode:difference">
<rect x="35" y="174" width="67" height="30" fill="white"/>
<rect x="199" y="146" width="597" height="30" fill="white"/>
<rect x="180.744" y="174.594" width="27" height="26" transform="rotate(-8.22273 180.744 174.594)" fill="white"/>
<rect x="180.744" y="174.594" width="27" height="26" transform="rotate(-8.22273 180.744 174.594)" stroke="black" stroke-width="2"/>
<path d="M196.889 192.675C196.007 192.803 195.188 192.76 194.434 192.547C193.679 192.334 193.057 191.963 192.566 191.435C192.081 190.9 191.788 190.216 191.687 189.382L191.698 189.321L194.047 188.982C194.107 189.4 194.251 189.758 194.478 190.054C194.711 190.349 195.009 190.566 195.371 190.704C195.739 190.835 196.154 190.867 196.618 190.8C197.334 190.697 197.866 190.42 198.215 189.968C198.57 189.509 198.693 188.909 198.586 188.168C198.478 187.42 198.203 186.884 197.762 186.56C197.319 186.229 196.695 186.122 195.89 186.239L194.305 186.468L194.037 184.612L195.661 184.377C196.157 184.306 196.547 184.164 196.832 183.951C197.123 183.732 197.316 183.454 197.412 183.118C197.514 182.774 197.533 182.383 197.47 181.945C197.37 181.256 197.116 180.75 196.708 180.427C196.299 180.098 195.752 179.983 195.069 180.082C194.651 180.142 194.292 180.28 193.994 180.494C193.703 180.707 193.489 180.978 193.352 181.307C193.222 181.635 193.186 182.002 193.245 182.408L190.886 182.748L190.859 182.693C190.734 181.968 190.817 181.288 191.107 180.654C191.402 180.013 191.867 179.476 192.502 179.042C193.136 178.608 193.895 178.327 194.778 178.2C196.157 178.001 197.309 178.189 198.234 178.766C199.158 179.336 199.713 180.259 199.897 181.535C199.988 182.16 199.892 182.773 199.61 183.372C199.335 183.971 198.863 184.483 198.194 184.909C199.04 185.07 199.694 185.413 200.158 185.937C200.629 186.462 200.919 187.1 201.027 187.854C201.15 188.705 201.054 189.472 200.738 190.156C200.422 190.833 199.93 191.391 199.263 191.829C198.602 192.26 197.811 192.542 196.889 192.675Z" fill="black"/>
</g>
</svg>
