<svg width="840" height="1188" viewBox="0 0 840 1188" fill="none" xmlns="http://www.w3.org/2000/svg">
<g style="mix-blend-mode:difference">
<rect x="33" y="874" width="330" height="30" fill="white"/>
<rect x="360.127" y="858" width="27" height="26" transform="rotate(6.90807 360.127 858)" fill="white"/>
<rect x="360.127" y="858" width="27" height="26" transform="rotate(6.90807 360.127 858)" stroke="black" stroke-width="2"/>
<path d="M366.46 878.913L366.656 877.294L371.859 872.839C372.432 872.331 372.881 871.894 373.208 871.527C373.542 871.154 373.787 870.807 373.944 870.485C374.101 870.163 374.2 869.831 374.242 869.488C374.316 868.874 374.198 868.332 373.888 867.861C373.578 867.391 373.08 867.114 372.395 867.031C371.671 866.944 371.088 867.106 370.644 867.518C370.202 867.923 369.931 868.533 369.832 869.347L367.467 869.061L367.454 869C367.536 868.164 367.805 867.436 368.26 866.816C368.716 866.189 369.32 865.724 370.072 865.422C370.831 865.114 371.698 865.019 372.674 865.137C373.611 865.251 374.395 865.519 375.026 865.943C375.656 866.367 376.116 866.905 376.404 867.556C376.699 868.209 376.798 868.932 376.702 869.727C376.637 870.263 376.47 870.771 376.202 871.25C375.941 871.73 375.571 872.216 375.091 872.709C374.618 873.203 374.031 873.745 373.33 874.335L369.767 877.357L369.78 877.407L374.007 877.919L374.33 876.473L376.279 876.709L375.874 880.054L366.46 878.913Z" fill="black"/>
</g>
</svg>
