<svg width="840" height="400" viewBox="0 0 840 400" fill="none" xmlns="http://www.w3.org/2000/svg">
<rect width="840" height="400" fill="#E2E2E2"/>
<text fill="black" xml:space="preserve" style="white-space: pre" font-family="Noto Sans TC" font-size="8" letter-spacing="0.05em"><tspan x="63" y="321.488">&#x975e;&#x672c;&#x4eba;&#x8acb;&#x52ff;&#x62c6;&#x95b1;&#xff0c;&#x7121;&#x6cd5;&#x6295;&#x905e;&#x8acb;&#x5bc4;&#x56de;</tspan></text>
<g filter="url(#filter0_i_12_3843)">
<rect x="51" y="128" width="400" height="170" rx="15" fill="#D4D4D4"/>
</g>
<rect x="746.25" y="30.25" width="63.5" height="76.5" stroke="black" stroke-width="0.5"/>
<path d="M777.624 36.4125C780.498 36.243 783.394 36.9504 785.943 38.262C788.53 39.6767 790.784 41.7178 792.391 44.1936C795.095 48.2757 795.714 53.5588 794.454 58.2451C793.791 60.5809 792.56 62.7325 791.005 64.5894C789.716 66.1662 788.117 67.4778 786.348 68.4799C783.74 69.9536 780.734 70.6609 777.742 70.6388C775.627 70.683 773.52 70.2262 771.567 69.4378C769.313 68.5388 767.323 67.0725 765.606 65.3778C763.293 62.9757 761.642 59.8957 761.141 56.5872C760.824 54.3694 760.699 52.0851 761.193 49.882C761.716 47.3104 762.895 44.8862 764.56 42.8525C766.277 40.6567 768.554 38.8883 771.111 37.7609C773.159 36.862 775.399 36.4788 777.624 36.4125ZM776.887 38.3946C775.193 38.5273 773.498 38.8662 771.936 39.5515C769.799 40.4946 767.876 41.9315 766.395 43.7367C764.958 45.3946 763.86 47.3546 763.293 49.4767C762.615 51.8125 762.696 54.303 763.116 56.6757C763.47 58.4957 764.14 60.2715 765.216 61.7894C766.631 63.9557 768.664 65.6578 770.89 66.9399C773.026 68.0894 775.458 68.7525 777.89 68.6494C780.048 68.6641 782.23 68.2588 784.204 67.3673C788.751 65.3115 792.206 60.9051 792.98 55.9609C793.673 51.3115 792.265 46.2567 788.854 42.9409C787.159 41.1873 785.044 39.8241 782.731 39.0578C780.859 38.402 778.855 38.2399 776.887 38.3946Z" fill="black"/>
<path d="M771.479 43.5159C773.299 43.5159 775.112 43.5159 776.932 43.5159C776.932 44.2306 776.932 44.938 776.932 45.6527C775.782 45.6527 774.633 45.6453 773.491 45.6748C773.469 46.478 773.469 47.2811 773.498 48.0843C774.198 47.6643 774.869 47.1927 775.554 46.7432C776.32 47.4801 777.013 48.2906 777.764 49.0422C777.344 49.5285 776.91 50.0001 776.446 50.4496C776.121 50.1106 775.79 49.779 775.458 49.4474C774.788 49.8748 774.124 50.3022 773.469 50.7443C773.469 51.4369 773.469 52.1369 773.476 52.8369C774.198 52.3801 774.869 51.8643 775.583 51.3927C776.335 52.2769 777.101 53.1464 777.846 54.0306C777.396 54.4359 776.976 54.8632 776.527 55.2685C776.217 54.8117 775.9 54.3622 775.591 53.9053C774.876 54.3696 774.169 54.8338 773.469 55.3127C773.469 55.6443 773.476 55.9759 773.483 56.3148C774.707 56.3443 775.93 56.3369 777.153 56.3369C777.153 57.0959 777.153 57.8622 777.153 58.6211C775.959 58.6211 774.758 58.6138 773.564 58.6359C773.55 59.358 773.542 60.0875 773.557 60.8096C774.78 60.839 776.003 60.8317 777.227 60.8317C777.227 61.5906 777.227 62.3569 777.227 63.1159C774.132 63.1159 771.037 63.1159 767.942 63.1159C767.942 62.379 767.942 61.6422 767.942 60.9053C769.143 60.9053 770.352 60.9053 771.553 60.9053C771.553 60.1464 771.553 59.3801 771.553 58.6211C770.352 58.6211 769.143 58.6211 767.942 58.6211C767.942 57.8843 767.942 57.1474 767.942 56.4106C769.143 56.4106 770.352 56.4106 771.553 56.4106C771.553 55.8211 771.553 55.2317 771.553 54.6422C771.31 54.8264 771.074 55.0106 770.831 55.1874C770.396 54.7896 769.954 54.399 769.512 54.0159C769.158 54.3474 768.812 54.6938 768.458 55.0327C768.053 54.6348 767.64 54.2443 767.206 53.8832C767.898 53.0727 768.664 52.3285 769.423 51.5843C770.116 52.0559 770.794 52.5496 771.472 53.0359C771.479 52.078 771.487 51.1127 771.479 50.1474C771.302 50.2727 771.133 50.3906 770.956 50.5159C770.602 50.1843 770.241 49.8453 769.866 49.5432C769.357 49.9485 768.863 50.3685 768.348 50.759C767.95 50.1843 767.537 49.6243 767.132 49.0569C768.009 48.3274 768.753 47.458 769.622 46.7359C770.227 47.2296 770.86 47.6864 771.472 48.1653C771.479 46.618 771.479 45.0632 771.479 43.5159Z" fill="black"/>
<path d="M778.7 43.5159C781.5 43.5159 784.3 43.5159 787.1 43.5159C787.1 45.7264 787.1 47.9369 787.1 50.1474C784.278 50.1474 781.448 50.1474 778.626 50.1474C778.582 47.9369 778.737 45.7264 778.7 43.5159ZM780.542 45.6527C780.542 46.3896 780.542 47.1264 780.542 47.8632C782.067 47.8632 783.585 47.8632 785.11 47.8632C785.11 47.1264 785.11 46.3896 785.11 45.6527C783.585 45.6527 782.067 45.6527 780.542 45.6527Z" fill="black"/>
<path d="M778.7 51.7683C781.552 51.7683 784.396 51.7683 787.248 51.7683C787.248 54.0525 787.248 56.3367 787.248 58.6209C785.162 58.6209 783.07 58.6209 780.984 58.6209C780.984 59.3799 780.984 60.1462 780.984 60.9052C783.025 60.9052 785.059 60.9052 787.1 60.9052C787.1 61.642 787.1 62.3788 787.1 63.1157C784.322 63.1157 781.552 63.1157 778.774 63.1157C778.774 60.8094 778.774 58.4957 778.774 56.1894C779.489 56.1894 780.196 56.1894 780.911 56.1894C780.911 55.5041 780.911 54.8115 780.911 54.1262C780.174 54.1262 779.437 54.1262 778.7 54.1262C778.7 53.3378 778.7 52.5567 778.7 51.7683ZM782.974 53.9788C782.974 54.7378 782.974 55.5041 782.974 56.263C783.652 56.263 784.33 56.2925 785.008 56.2409C785.03 56.2188 785.067 56.182 785.089 56.1673C785.14 55.4378 785.111 54.7083 785.111 53.9788C784.403 53.9788 783.689 53.9788 782.974 53.9788Z" fill="black"/>
<text fill="black" xml:space="preserve" style="white-space: pre" font-family="Noto Sans TC" font-size="10" letter-spacing="3.1em"><tspan x="752.5" y="83.86">&#x570b;&#x5167;</tspan></text>
<text fill="black" xml:space="preserve" style="white-space: pre" font-family="Noto Sans TC" font-size="10" letter-spacing="0.37em"><tspan x="752.45" y="98.86">&#x90f5;&#x8cc7;&#x5df2;&#x4ed8;</tspan></text>
<defs>
<filter id="filter0_i_12_3843" x="51" y="128" width="402" height="174" filterUnits="userSpaceOnUse" color-interpolation-filters="sRGB">
<feFlood flood-opacity="0" result="BackgroundImageFix"/>
<feBlend mode="normal" in="SourceGraphic" in2="BackgroundImageFix" result="shape"/>
<feColorMatrix in="SourceAlpha" type="matrix" values="0 0 0 0 0 0 0 0 0 0 0 0 0 0 0 0 0 0 127 0" result="hardAlpha"/>
<feOffset dx="2" dy="4"/>
<feGaussianBlur stdDeviation="2"/>
<feComposite in2="hardAlpha" operator="arithmetic" k2="-1" k3="1"/>
<feColorMatrix type="matrix" values="0 0 0 0 0 0 0 0 0 0 0 0 0 0 0 0 0 0 0.25 0"/>
<feBlend mode="normal" in2="shape" result="effect1_innerShadow_12_3843"/>
</filter>
</defs>
</svg>
