<svg width="840" height="400" viewBox="0 0 840 400" fill="none" xmlns="http://www.w3.org/2000/svg">
<rect width="840" height="400" fill="#E2E2E2"/>
<text fill="black" xml:space="preserve" style="white-space: pre" font-family="Noto Sans TC" font-size="8" letter-spacing="0.05em"><tspan x="63" y="321.488">&#x975e;&#x672c;&#x4eba;&#x8acb;&#x52ff;&#x62c6;&#x95b1;&#xff0c;&#x7121;&#x6cd5;&#x6295;&#x905e;&#x8acb;&#x5bc4;&#x56de;</tspan></text>
<g filter="url(#filter0_i_12_4166)">
<rect x="51" y="128" width="400" height="170" rx="15" fill="#D4D4D4"/>
</g>
<rect x="746.25" y="30.25" width="63.5" height="76.5" stroke="black" stroke-width="0.5"/>
<path d="M777.624 36.4125C780.498 36.243 783.394 36.9504 785.943 38.262C788.53 39.6767 790.784 41.7178 792.391 44.1936C795.095 48.2757 795.714 53.5588 794.454 58.2451C793.791 60.5809 792.56 62.7325 791.005 64.5894C789.716 66.1662 788.117 67.4778 786.348 68.4799C783.74 69.9536 780.734 70.6609 777.742 70.6388C775.627 70.683 773.52 70.2262 771.567 69.4378C769.313 68.5388 767.323 67.0725 765.606 65.3778C763.293 62.9757 761.642 59.8957 761.141 56.5872C760.824 54.3694 760.699 52.0851 761.193 49.882C761.716 47.3104 762.895 44.8862 764.56 42.8525C766.277 40.6567 768.554 38.8883 771.111 37.7609C773.159 36.862 775.399 36.4788 777.624 36.4125ZM776.887 38.3946C775.193 38.5273 773.498 38.8662 771.936 39.5515C769.799 40.4946 767.876 41.9315 766.395 43.7367C764.958 45.3946 763.86 47.3546 763.293 49.4767C762.615 51.8125 762.696 54.303 763.116 56.6757C763.47 58.4957 764.14 60.2715 765.216 61.7894C766.631 63.9557 768.664 65.6578 770.89 66.9399C773.026 68.0894 775.458 68.7525 777.89 68.6494C780.048 68.6641 782.23 68.2588 784.204 67.3673C788.751 65.3115 792.206 60.9051 792.98 55.9609C793.673 51.3115 792.265 46.2567 788.854 42.9409C787.159 41.1873 785.044 39.8241 782.731 39.0578C780.859 38.402 778.855 38.2399 776.887 38.3946Z" fill="black"/>
<path d="M771.479 43.5159C773.299 43.5159 775.112 43.5159 776.932 43.5159C776.932 44.2306 776.932 44.938 776.932 45.6527C775.782 45.6527 774.633 45.6453 773.491 45.6748C773.469 46.478 773.469 47.2811 773.498 48.0843C774.198 47.6643 774.869 47.1927 775.554 46.7432C776.32 47.4801 777.013 48.2906 777.764 49.0422C777.344 49.5285 776.91 50.0001 776.446 50.4496C776.121 50.1106 775.79 49.779 775.458 49.4474C774.788 49.8748 774.124 50.3022 773.469 50.7443C773.469 51.4369 773.469 52.1369 773.476 52.8369C774.198 52.3801 774.869 51.8643 775.583 51.3927C776.335 52.2769 777.101 53.1464 777.846 54.0306C777.396 54.4359 776.976 54.8632 776.527 55.2685C776.217 54.8117 775.9 54.3622 775.591 53.9053C774.876 54.3696 774.169 54.8338 773.469 55.3127C773.469 55.6443 773.476 55.9759 773.483 56.3148C774.707 56.3443 775.93 56.3369 777.153 56.3369C777.153 57.0959 777.153 57.8622 777.153 58.6211C775.959 58.6211 774.758 58.6138 773.564 58.6359C773.55 59.358 773.542 60.0875 773.557 60.8096C774.78 60.839 776.003 60.8317 777.227 60.8317C777.227 61.5906 777.227 62.3569 777.227 63.1159C774.132 63.1159 771.037 63.1159 767.942 63.1159C767.942 62.379 767.942 61.6422 767.942 60.9053C769.143 60.9053 770.352 60.9053 771.553 60.9053C771.553 60.1464 771.553 59.3801 771.553 58.6211C770.352 58.6211 769.143 58.6211 767.942 58.6211C767.942 57.8843 767.942 57.1474 767.942 56.4106C769.143 56.4106 770.352 56.4106 771.553 56.4106C771.553 55.8211 771.553 55.2317 771.553 54.6422C771.31 54.8264 771.074 55.0106 770.831 55.1874C770.396 54.7896 769.954 54.399 769.512 54.0159C769.158 54.3474 768.812 54.6938 768.458 55.0327C768.053 54.6348 767.64 54.2443 767.206 53.8832C767.898 53.0727 768.664 52.3285 769.423 51.5843C770.116 52.0559 770.794 52.5496 771.472 53.0359C771.479 52.078 771.487 51.1127 771.479 50.1474C771.302 50.2727 771.133 50.3906 770.956 50.5159C770.602 50.1843 770.241 49.8453 769.866 49.5432C769.357 49.9485 768.863 50.3685 768.348 50.759C767.95 50.1843 767.537 49.6243 767.132 49.0569C768.009 48.3274 768.753 47.458 769.622 46.7359C770.227 47.2296 770.86 47.6864 771.472 48.1653C771.479 46.618 771.479 45.0632 771.479 43.5159Z" fill="black"/>
<path d="M778.7 43.5159C781.5 43.5159 784.3 43.5159 787.1 43.5159C787.1 45.7264 787.1 47.9369 787.1 50.1474C784.278 50.1474 781.448 50.1474 778.626 50.1474C778.582 47.9369 778.737 45.7264 778.7 43.5159ZM780.542 45.6527C780.542 46.3896 780.542 47.1264 780.542 47.8632C782.067 47.8632 783.585 47.8632 785.11 47.8632C785.11 47.1264 785.11 46.3896 785.11 45.6527C783.585 45.6527 782.067 45.6527 780.542 45.6527Z" fill="black"/>
<path d="M778.7 51.7683C781.552 51.7683 784.396 51.7683 787.248 51.7683C787.248 54.0525 787.248 56.3367 787.248 58.6209C785.162 58.6209 783.07 58.6209 780.984 58.6209C780.984 59.3799 780.984 60.1462 780.984 60.9052C783.025 60.9052 785.059 60.9052 787.1 60.9052C787.1 61.642 787.1 62.3788 787.1 63.1157C784.322 63.1157 781.552 63.1157 778.774 63.1157C778.774 60.8094 778.774 58.4957 778.774 56.1894C779.489 56.1894 780.196 56.1894 780.911 56.1894C780.911 55.5041 780.911 54.8115 780.911 54.1262C780.174 54.1262 779.437 54.1262 778.7 54.1262C778.7 53.3378 778.7 52.5567 778.7 51.7683ZM782.974 53.9788C782.974 54.7378 782.974 55.5041 782.974 56.263C783.652 56.263 784.33 56.2925 785.008 56.2409C785.03 56.2188 785.067 56.182 785.089 56.1673C785.14 55.4378 785.111 54.7083 785.111 53.9788C784.403 53.9788 783.689 53.9788 782.974 53.9788Z" fill="black"/>
<text fill="black" xml:space="preserve" style="white-space: pre" font-family="Noto Sans TC" font-size="10" letter-spacing="3.1em"><tspan x="752.5" y="83.86">&#x570b;&#x5167;</tspan></text>
<text fill="black" xml:space="preserve" style="white-space: pre" font-family="Noto Sans TC" font-size="10" letter-spacing="0.37em"><tspan x="752.45" y="98.86">&#x90f5;&#x8cc7;&#x5df2;&#x4ed8;</tspan></text>
<g clip-path="url(#clip0_12_4166)">
<path fill-rule="evenodd" clip-rule="evenodd" d="M141.223 31.5884H141.397L141.501 35.8252H141.223L141.049 35.1888L140.701 34.5881L140.249 33.9537L139.656 33.4589L138.96 33.0007L138.055 32.6473L137.009 32.3663L135.861 32.294H134.468L133.841 32.3663L133.214 32.5415L132.796 32.7176L132.273 33.0007L131.925 33.2827L131.472 33.5301L130.95 34.2358L130.532 35.0483L130.253 35.8252L130.184 36.6011V37.1305L130.253 37.6956L130.359 38.1192L130.532 38.4725L131.02 39.1771L131.752 39.7086L132.553 40.0599L133.493 40.4142L135.861 41.1199L136.662 41.296L137.741 41.5434L138.96 42.0016L139.587 42.2847L140.177 42.6024L140.806 43.0616L141.327 43.591L141.85 44.1918L142.302 44.9667L142.652 45.7792L142.824 46.7689L143 47.8258V48.957L142.824 49.8378L142.652 50.6523L142.372 51.3579L142.024 52.0626L141.572 52.6643L141.154 53.1937L140.526 53.7212L139.935 54.1448L139.202 54.605L138.506 54.9583L137.637 55.2057L136.836 55.3819L135.861 55.5581L134.921 55.6639L133.946 55.7698H132.447L131.229 55.5581L129.453 55.3106L127.191 54.7109H126.737L126.458 54.7822L126.284 54.9583L126.143 55.2057H125.831V50.6523H126.143L126.388 51.6034L126.632 52.1348L126.806 52.3802L127.191 52.7682L127.782 53.2977L128.234 53.5451L128.756 53.8994L129.453 54.1448L130.253 54.4289L131.229 54.605H133.493L134.571 54.4289L135.547 54.0755L136.417 53.5451L136.766 53.2977L137.115 52.9463L137.461 52.4861L137.741 52.0626L137.985 51.6034L138.159 51.0749L138.333 50.4742L138.402 49.8378V48.957L138.333 48.4275L138.159 47.8258L137.914 47.2963L137.568 46.662L137.009 46.2394L136.312 45.7792L135.547 45.5338L134.571 45.2497L132.273 44.65L131.02 44.1918L129.906 43.7682L128.826 43.2377L128.338 42.8844L127.886 42.6024L127.538 42.2847L127.086 41.8245L126.632 41.1901L126.216 40.4845L125.831 39.6027L125.763 39.1079L125.692 38.5428V37.3067L125.831 36.4605L126.04 35.648L126.388 34.9424L126.737 34.307L127.086 33.7766L127.607 33.2827L128.164 32.8235L128.651 32.4712L129.28 32.2238L129.906 31.9407L131.125 31.5171L132.553 31.3054L133.841 31.2361H134.468L135.791 31.3054L137.741 31.5171L138.681 31.6943L139.656 31.8714L140.108 31.9407H140.421L140.806 31.8714L141.049 31.6943L141.223 31.5884Z" fill="#010101"/>
<path fill-rule="evenodd" clip-rule="evenodd" d="M120.26 49.5923L120.086 50.8274L119.808 51.8151L119.46 52.6988L118.937 53.2976L118.415 53.7578L117.892 54.0052L117.336 54.2872L116.814 54.3931L115.77 54.5693L114.516 54.6386L112.078 54.5693H111.627L111.277 54.4614L110.999 54.2872L110.86 54.1091L110.756 53.9329V53.7568L110.686 53.2966L110.756 47.6506L110.999 33.246L111.103 32.6819L111.173 32.4345L111.555 32.3652H114.271L114.968 32.4345L115.874 32.6106L116.641 32.963L117.093 33.246L117.79 33.9516L118.068 34.3752L118.311 34.9067L118.59 35.6113L118.66 36.3535L118.764 37.1294V38.0122L118.66 38.7891L118.416 39.4245L118.068 40.0242L117.721 40.5883L117.268 41.0119L116.815 41.3652L116.292 41.7175L115.248 42.1767L114.169 42.4232L113.297 42.6003H112.707L112.604 42.7062L112.707 42.8833L114.1 42.9546L115.493 43.2367L116.224 43.4841L116.816 43.6959L117.443 44.0135L118.488 44.7202L118.94 45.2823L119.287 45.7771L119.636 46.4135L119.914 47.0498L120.089 47.8247L120.158 48.7085L120.26 49.5923ZM118.658 42.6023L119.633 42.1787L120.434 41.7195L121.304 41.0139L121.722 40.6616L122.105 40.2023L122.454 39.7085L122.802 39.178L123.08 38.5427L123.255 37.9429L123.323 37.2017V36.4238L123.149 35.4361L122.905 34.6592L122.523 33.9536L122.103 33.4241L121.548 32.859L121.06 32.4355L120.433 32.189L119.7 31.906L119.11 31.7288L118.413 31.6596L117.16 31.4824H104.692V31.7288H105.04L105.388 31.906L105.632 32.0831L105.911 32.3662L106.084 32.6839L106.154 33.1421L106.259 33.7775V34.3772L106.154 52.8037V53.4045L106.084 53.828L105.911 54.2882L105.493 54.8177L105.108 54.9939L104.762 55.17L104.413 55.2413V55.5233H118.238L119.039 55.4174L119.979 55.3462L121.058 54.9949L121.546 54.8187L122.101 54.5713L122.624 54.1823L123.077 53.7588L123.496 53.2986L123.947 52.6998L124.296 52.0635L124.539 51.3578L124.713 50.4741L124.817 49.5923V48.9916L124.713 48.18L124.471 47.227L124.296 46.7688L123.947 46.2393L123.67 45.7098L123.252 45.1804L122.695 44.6509L122.102 44.1927L121.407 43.7691L120.605 43.3089L119.699 42.9566L118.658 42.6023Z" fill="#010101"/>
<path fill-rule="evenodd" clip-rule="evenodd" d="M94.9782 53.9339L93.6564 54.3941L92.1578 54.5703L90.6973 54.6396L89.025 54.5703L88.571 54.4624L88.2235 54.3951L87.9453 54.1823L87.8769 54.0062L87.7022 53.6529L87.5977 53.2996V49.5943L87.4942 43.2396L87.5977 37.0265L87.7022 33.4261L87.7725 32.7908L87.8759 32.6136L87.9443 32.4374L88.119 32.3682H88.9196L91.0097 32.4374L92.0885 32.5433L93.0286 32.7908L93.9346 33.0738L94.7 33.4964L95.5015 33.9546L96.1966 34.4841L96.7199 35.1907L97.3476 35.7904L97.7655 36.602L98.2175 37.3788L98.567 38.2606L98.8091 39.178L99.0883 40.1321L99.2621 41.191L99.5061 43.3089V45.4624L99.4378 46.4155L99.3675 47.4031L99.0893 48.2869L98.9136 49.0618L98.568 49.8753L98.2878 50.5809L97.8358 51.2173L97.5234 51.816L97.1739 52.3455L96.7218 52.8037L96.2698 53.1224L95.8169 53.4757L95.398 53.7578L94.9782 53.9339ZM92.6801 31.4824H81.5722V31.7288L82.0945 31.906L82.6158 32.189L82.9644 32.6116L83.0327 32.859V33.248L83.1362 34.8364L83.2055 37.3778L83.3109 44.0145L83.2055 50.58L83.1362 52.874L83.0327 54.1804L82.7886 54.5693L82.4411 54.8167L81.9188 55.0621L81.3965 55.2403V55.5223H93.9336L94.7683 55.4164L95.7436 55.2403L96.7189 54.9929L97.5888 54.6396L98.4606 54.1813L99.3665 53.6519L100.132 52.9809L100.932 52.2406L101.629 51.4637L102.257 50.58L102.78 49.4864L103.301 48.4621L103.648 47.2963L103.997 46.0631L104.172 44.8261V41.8967L103.893 40.4844L103.545 39.178L103.092 37.9429L102.5 36.8504L101.874 35.8963L101.107 35.0145L100.307 34.203L99.4368 33.4964L98.566 32.9659L97.5888 32.4365L96.6145 32.0841L95.6743 31.8357L94.5946 31.5547L93.6554 31.4834L92.6801 31.4824Z" fill="#010101"/>
<path fill-rule="evenodd" clip-rule="evenodd" d="M72.7619 51.8874L66.2853 46.4155L66.1096 46.3097L65.6586 45.9583L65.1343 45.7109L64.7887 45.605L64.3348 45.5357L63.9872 45.605L63.6387 45.7109L63.1174 45.9583L62.6644 46.3097L62.4906 46.4155L55.978 51.8874L61.446 45.3556L61.6198 45.1795L61.898 44.8261L62.1431 44.1918L62.2114 43.8385L62.3149 43.4861L62.2114 43.1328L62.1431 42.7805L61.898 42.1808L61.6198 41.7216L61.446 41.5454L55.978 35.0146L62.4906 40.4855L62.6644 40.6616L63.1174 40.9447L63.6387 41.1921L63.9872 41.3693H64.7887L65.1343 41.1921L65.6586 40.9447L66.1096 40.6616L66.2853 40.4855L72.7619 35.0146L67.3299 41.5454L67.1552 41.7216L66.8769 42.1808L66.5997 42.7805L66.5304 43.1328L66.4259 43.4861L66.5304 43.8385L66.5997 44.1918L66.8769 44.8261L67.1552 45.1795L67.3299 45.3556L72.7619 51.8874ZM75.757 43.4852L75.8263 42.1788L76.0001 40.7665L76.209 40.0599L76.3838 39.1771L76.6962 38.2954L77.1502 37.3067L77.6715 36.2477L77.7759 35.7885V35.365L77.6715 34.9414L77.4977 34.4822L77.1502 33.9527L76.8007 33.6004L76.3838 33.4242L76.0001 33.2471L75.5823 33.1778L75.2347 33.2471H74.8511L74.2594 33.4945L74.5377 32.8948L74.607 32.5415V32.1891L74.5377 31.7656L74.4342 31.3766L74.1892 31.0223L73.8074 30.5997L73.3886 30.2474L72.8321 30.0703L72.4143 30H71.9955L71.5435 30.1415L71.1969 30.2474L70.4637 30.5997L69.5236 31.0223L68.6176 31.3766L67.8513 31.6597L67.0517 31.8348L65.6595 31.9061L64.3357 32.012L63.1174 31.9061L61.7242 31.8348L60.9227 31.6597L60.1212 31.3766L59.2514 31.0223L58.2761 30.5997L57.58 30.2474L57.2315 30.1415L56.7785 30H56.3255L55.9067 30.0703L55.3854 30.2474L54.9324 30.5997L54.5839 31.0223L54.3417 31.3766L54.2363 31.7656L54.1328 32.1891V32.5415L54.2363 32.8948L54.5165 33.4945L53.8878 33.2471H53.5402L53.1917 33.1778L52.7397 33.2471L52.3921 33.4242L51.9401 33.6004L51.6258 33.9527L51.2782 34.4822L51 34.9414V35.7885L51.0693 36.2477L51.2782 36.6001L51.6258 37.3057L52.0446 38.2944L52.3921 39.1762L52.5659 40.0589L52.7407 40.7656L52.9164 42.1778L53.0199 43.4842L52.9164 44.8252L52.7407 46.1315L52.5659 46.943L52.3921 47.7199L52.0446 48.6364L51.6258 49.5914L51.2782 50.297L51.0693 50.6503L51 51.0739V51.9903L51.2782 52.4852L51.6258 53.0512L51.9401 53.2967L52.3921 53.5787L52.7397 53.65L53.1917 53.7559H53.5402L53.8878 53.65L54.5165 53.4026L54.2363 54.0033L54.1328 54.3546V54.8148L54.3427 55.5205L54.5848 55.944L54.9334 56.2954L55.3863 56.6487L55.9077 56.9327L56.3265 57L56.7795 56.9327L57.2325 56.8268L58.2761 56.2954L59.2514 55.8718L60.1212 55.5917L60.9227 55.3423L61.7242 55.1662L63.1174 54.99H65.6595L67.0517 55.1662L67.8513 55.3423L68.6176 55.5917L69.5236 55.8718L70.4637 56.2954L71.1969 56.6487L71.5435 56.8268L71.9965 56.9327L72.4153 57L72.8331 56.9327L73.3896 56.6487L73.8084 56.2954L74.1901 55.944L74.4352 55.5205L74.5387 55.1671L74.608 54.8158V54.3556L74.5387 54.0043L74.2604 53.4036L74.852 53.651L75.2357 53.7569H75.5833L76.0011 53.651L76.3848 53.5797L76.8016 53.2977L77.1511 53.0522L77.4987 52.4861L77.6725 51.9913L77.7769 51.5331V51.0749L77.6725 50.6513L77.1511 49.5924L76.6972 48.6373L76.3848 47.7209L76.21 46.944L76.0011 46.1325L75.8273 44.8261L75.757 43.4852Z" fill="#EF3B3F"/>
</g>
<path fill-rule="evenodd" clip-rule="evenodd" d="M746.25 383.5L742.201 336.806L741.926 335.705L741.528 332.569L740.438 329.551L739.497 327.784L737.989 325.736L736.357 324.645L734.579 323.692L731.573 322.614L728.429 322.208L727.336 321.94L680.5 317.75L727.374 313.718L728.741 313.712L731.208 313.425L734.64 311.913L736.284 310.804L738.063 309.836L739.034 308.054L740.139 306.414L741.516 303.117L742.216 300.237L742.222 298.87L746.25 252L750.444 298.832L750.438 300.199L751.11 303.077L752.188 306.083L752.863 308.139L756.003 311.278L758.047 311.942L761.065 313.032L763.935 313.696L765.31 313.697L812 317.75L765.271 321.92L763.9 321.922L761.021 322.621L757.598 323.872L755.953 324.974L754.167 325.941L753.204 327.723L752.098 329.372L750.713 332.93L750.426 335.397L750.424 336.768L746.25 383.5Z" fill="#EF3B3F"/>
<path fill-rule="evenodd" clip-rule="evenodd" d="M788.068 300.137L786.586 283.044L786.485 282.641L786.34 281.493L785.941 280.388L785.596 279.742L785.044 278.992L784.447 278.592L783.796 278.243L782.696 277.849L781.545 277.7L781.145 277.602L764 276.068L781.159 274.592L781.659 274.59L782.562 274.485L783.818 273.932L784.42 273.526L785.071 273.172L785.427 272.519L785.831 271.919L786.336 270.712L786.592 269.658L786.594 269.157L788.068 252L789.604 269.143L789.602 269.644L789.847 270.697L790.242 271.798L790.489 272.55L791.638 273.699L792.387 273.942L793.491 274.341L794.542 274.584L795.045 274.585L812.137 276.068L795.031 277.595L794.529 277.596L793.475 277.852L792.222 278.309L791.62 278.713L790.967 279.067L790.614 279.719L790.209 280.323L789.702 281.625L789.597 282.528L789.596 283.03L788.068 300.137Z" fill="#EF3B3F"/>
<defs>
<filter id="filter0_i_12_4166" x="51" y="128" width="402" height="174" filterUnits="userSpaceOnUse" color-interpolation-filters="sRGB">
<feFlood flood-opacity="0" result="BackgroundImageFix"/>
<feBlend mode="normal" in="SourceGraphic" in2="BackgroundImageFix" result="shape"/>
<feColorMatrix in="SourceAlpha" type="matrix" values="0 0 0 0 0 0 0 0 0 0 0 0 0 0 0 0 0 0 127 0" result="hardAlpha"/>
<feOffset dx="2" dy="4"/>
<feGaussianBlur stdDeviation="2"/>
<feComposite in2="hardAlpha" operator="arithmetic" k2="-1" k3="1"/>
<feColorMatrix type="matrix" values="0 0 0 0 0 0 0 0 0 0 0 0 0 0 0 0 0 0 0.25 0"/>
<feBlend mode="normal" in2="shape" result="effect1_innerShadow_12_4166"/>
</filter>
<clipPath id="clip0_12_4166">
<rect width="92" height="27" fill="white" transform="translate(51 30)"/>
</clipPath>
</defs>
</svg>
