<svg width="840" height="400" viewBox="0 0 840 400" fill="none" xmlns="http://www.w3.org/2000/svg">
<g clip-path="url(#clip0_12_4080)">
<rect width="840" height="400" fill="#E2E2E2"/>
<text fill="black" xml:space="preserve" style="white-space: pre" font-family="Noto Sans TC" font-size="8" letter-spacing="0.05em"><tspan x="63" y="321.488">&#x975e;&#x672c;&#x4eba;&#x8acb;&#x52ff;&#x62c6;&#x95b1;&#xff0c;&#x7121;&#x6cd5;&#x6295;&#x905e;&#x8acb;&#x5bc4;&#x56de;</tspan></text>
<g filter="url(#filter0_i_12_4080)">
<rect x="51" y="128" width="400" height="170" rx="15" fill="#D4D4D4"/>
</g>
<rect x="746.25" y="30.25" width="63.5" height="76.5" stroke="black" stroke-width="0.5"/>
<path d="M777.624 36.4125C780.498 36.243 783.394 36.9504 785.943 38.262C788.53 39.6767 790.784 41.7178 792.391 44.1936C795.095 48.2757 795.714 53.5588 794.454 58.2451C793.791 60.5809 792.56 62.7325 791.005 64.5894C789.716 66.1662 788.117 67.4778 786.348 68.4799C783.74 69.9536 780.734 70.6609 777.742 70.6388C775.627 70.683 773.52 70.2262 771.567 69.4378C769.313 68.5388 767.323 67.0725 765.606 65.3778C763.293 62.9757 761.642 59.8957 761.141 56.5872C760.824 54.3694 760.699 52.0851 761.193 49.882C761.716 47.3104 762.895 44.8862 764.56 42.8525C766.277 40.6567 768.554 38.8883 771.111 37.7609C773.159 36.862 775.399 36.4788 777.624 36.4125ZM776.887 38.3946C775.193 38.5273 773.498 38.8662 771.936 39.5515C769.799 40.4946 767.876 41.9315 766.395 43.7367C764.958 45.3946 763.86 47.3546 763.293 49.4767C762.615 51.8125 762.696 54.303 763.116 56.6757C763.47 58.4957 764.14 60.2715 765.216 61.7894C766.631 63.9557 768.664 65.6578 770.89 66.9399C773.026 68.0894 775.458 68.7525 777.89 68.6494C780.048 68.6641 782.23 68.2588 784.204 67.3673C788.751 65.3115 792.206 60.9051 792.98 55.9609C793.673 51.3115 792.265 46.2567 788.854 42.9409C787.159 41.1873 785.044 39.8241 782.731 39.0578C780.859 38.402 778.855 38.2399 776.887 38.3946Z" fill="black"/>
<path d="M771.479 43.5159C773.299 43.5159 775.112 43.5159 776.932 43.5159C776.932 44.2306 776.932 44.938 776.932 45.6527C775.782 45.6527 774.633 45.6453 773.491 45.6748C773.469 46.478 773.469 47.2811 773.498 48.0843C774.198 47.6643 774.869 47.1927 775.554 46.7432C776.32 47.4801 777.013 48.2906 777.764 49.0422C777.344 49.5285 776.91 50.0001 776.446 50.4496C776.121 50.1106 775.79 49.779 775.458 49.4474C774.788 49.8748 774.124 50.3022 773.469 50.7443C773.469 51.4369 773.469 52.1369 773.476 52.8369C774.198 52.3801 774.869 51.8643 775.583 51.3927C776.335 52.2769 777.101 53.1464 777.846 54.0306C777.396 54.4359 776.976 54.8632 776.527 55.2685C776.217 54.8117 775.9 54.3622 775.591 53.9053C774.876 54.3696 774.169 54.8338 773.469 55.3127C773.469 55.6443 773.476 55.9759 773.483 56.3148C774.707 56.3443 775.93 56.3369 777.153 56.3369C777.153 57.0959 777.153 57.8622 777.153 58.6211C775.959 58.6211 774.758 58.6138 773.564 58.6359C773.55 59.358 773.542 60.0875 773.557 60.8096C774.78 60.839 776.003 60.8317 777.227 60.8317C777.227 61.5906 777.227 62.3569 777.227 63.1159C774.132 63.1159 771.037 63.1159 767.942 63.1159C767.942 62.379 767.942 61.6422 767.942 60.9053C769.143 60.9053 770.352 60.9053 771.553 60.9053C771.553 60.1464 771.553 59.3801 771.553 58.6211C770.352 58.6211 769.143 58.6211 767.942 58.6211C767.942 57.8843 767.942 57.1474 767.942 56.4106C769.143 56.4106 770.352 56.4106 771.553 56.4106C771.553 55.8211 771.553 55.2317 771.553 54.6422C771.31 54.8264 771.074 55.0106 770.831 55.1874C770.396 54.7896 769.954 54.399 769.512 54.0159C769.158 54.3474 768.812 54.6938 768.458 55.0327C768.053 54.6348 767.64 54.2443 767.206 53.8832C767.898 53.0727 768.664 52.3285 769.423 51.5843C770.116 52.0559 770.794 52.5496 771.472 53.0359C771.479 52.078 771.487 51.1127 771.479 50.1474C771.302 50.2727 771.133 50.3906 770.956 50.5159C770.602 50.1843 770.241 49.8453 769.866 49.5432C769.357 49.9485 768.863 50.3685 768.348 50.759C767.95 50.1843 767.537 49.6243 767.132 49.0569C768.009 48.3274 768.753 47.458 769.622 46.7359C770.227 47.2296 770.86 47.6864 771.472 48.1653C771.479 46.618 771.479 45.0632 771.479 43.5159Z" fill="black"/>
<path d="M778.7 43.5159C781.5 43.5159 784.3 43.5159 787.1 43.5159C787.1 45.7264 787.1 47.9369 787.1 50.1474C784.278 50.1474 781.448 50.1474 778.626 50.1474C778.582 47.9369 778.737 45.7264 778.7 43.5159ZM780.542 45.6527C780.542 46.3896 780.542 47.1264 780.542 47.8632C782.067 47.8632 783.585 47.8632 785.11 47.8632C785.11 47.1264 785.11 46.3896 785.11 45.6527C783.585 45.6527 782.067 45.6527 780.542 45.6527Z" fill="black"/>
<path d="M778.7 51.7683C781.552 51.7683 784.396 51.7683 787.248 51.7683C787.248 54.0525 787.248 56.3367 787.248 58.6209C785.162 58.6209 783.07 58.6209 780.984 58.6209C780.984 59.3799 780.984 60.1462 780.984 60.9052C783.025 60.9052 785.059 60.9052 787.1 60.9052C787.1 61.642 787.1 62.3788 787.1 63.1157C784.322 63.1157 781.552 63.1157 778.774 63.1157C778.774 60.8094 778.774 58.4957 778.774 56.1894C779.489 56.1894 780.196 56.1894 780.911 56.1894C780.911 55.5041 780.911 54.8115 780.911 54.1262C780.174 54.1262 779.437 54.1262 778.7 54.1262C778.7 53.3378 778.7 52.5567 778.7 51.7683ZM782.974 53.9788C782.974 54.7378 782.974 55.5041 782.974 56.263C783.652 56.263 784.33 56.2925 785.008 56.2409C785.03 56.2188 785.067 56.182 785.089 56.1673C785.14 55.4378 785.111 54.7083 785.111 53.9788C784.403 53.9788 783.689 53.9788 782.974 53.9788Z" fill="black"/>
<text fill="black" xml:space="preserve" style="white-space: pre" font-family="Noto Sans TC" font-size="10" letter-spacing="3.1em"><tspan x="752.5" y="83.86">&#x570b;&#x5167;</tspan></text>
<text fill="black" xml:space="preserve" style="white-space: pre" font-family="Noto Sans TC" font-size="10" letter-spacing="0.37em"><tspan x="752.45" y="98.86">&#x90f5;&#x8cc7;&#x5df2;&#x4ed8;</tspan></text>
<path d="M289.776 43.409H279.692C279.211 43.409 278.731 42.9249 278.731 42.4409C278.731 41.9568 279.211 41.4728 279.692 41.4728H289.776C290.256 41.4728 290.736 41.9568 290.736 42.4409C290.736 42.9249 290.256 43.409 289.776 43.409Z" fill="#54534A"/>
<path d="M270.808 46.5555C270.568 46.5555 270.327 46.5555 270.087 46.3134C269.847 45.8294 269.847 45.3453 270.327 45.1033L274.889 41.4729C275.37 41.2309 275.85 41.2309 276.09 41.715C276.33 42.199 276.33 42.6831 275.85 42.9251L271.288 46.3134C271.288 46.5555 271.048 46.5555 270.808 46.5555Z" fill="#54534A"/>
<path d="M270.808 52.8477C270.568 52.8477 270.327 52.8477 270.087 52.6057C269.847 52.1216 269.847 51.6376 270.327 51.3956L274.889 47.7652C275.37 47.5232 275.85 47.5232 276.09 48.0072C276.33 48.4913 276.33 48.9753 275.85 49.2174L271.288 52.8477C271.288 52.8477 271.048 52.8477 270.808 52.8477Z" fill="#54534A"/>
<path d="M291.216 49.9433H278.491C278.011 49.9433 277.531 49.4593 277.531 48.9752C277.531 48.4912 278.011 48.0072 278.491 48.0072H291.216C291.696 48.0072 292.176 48.4912 292.176 48.9752C292.176 49.7013 291.696 49.9433 291.216 49.9433Z" fill="#54534A"/>
<path d="M285.935 49.2178V60.835C285.935 61.319 285.695 61.561 285.215 61.561H283.774V63.4972H285.695C287.136 63.4972 287.616 62.7712 287.616 61.319V49.2178H285.935Z" fill="#54534A"/>
<path d="M283.774 63.4972L280.892 63.497C280.412 63.497 279.932 63.0129 279.932 62.5289C279.932 62.0448 280.412 61.5608 280.892 61.5608L283.774 61.561C284.255 61.561 284.734 62.0448 284.734 62.5289C284.494 63.255 284.255 63.4972 283.774 63.4972Z" fill="#54534A"/>
<path d="M273.929 63.7391C273.449 63.7391 272.969 63.255 272.969 62.771V49.7016C272.969 49.2176 273.449 48.7335 273.929 48.7335C274.409 48.7335 274.889 49.2176 274.889 49.7016V62.771C274.649 63.255 274.409 63.7391 273.929 63.7391Z" fill="#54534A"/>
<path d="M247.756 63.497C247.276 63.497 247.036 63.255 246.796 62.7709C246.556 62.2869 246.796 61.8028 247.276 61.5608L251.838 60.1087C252.318 59.8666 252.799 60.1087 253.039 60.5927C253.279 61.0768 253.039 61.5608 252.558 61.8028L247.997 63.255C247.997 63.497 247.756 63.497 247.756 63.497Z" fill="#54534A"/>
<path d="M237.193 55.5102C237.193 55.0262 237.433 54.7842 237.913 54.7842C238.393 54.7842 238.634 55.0262 238.634 55.5102V59.3826C238.634 59.8667 238.393 60.1087 237.913 60.1087C237.433 60.1087 237.193 59.8667 237.193 59.3826V55.5102Z" fill="#54534A"/>
<path d="M243.437 55.5102C243.437 55.0262 243.917 54.7842 244.157 54.7842C244.637 54.7842 244.877 55.0262 244.877 55.5102V59.3826C244.877 59.8667 244.637 60.1087 244.157 60.1087C243.677 60.1087 243.437 59.8667 243.437 59.3826V55.5102Z" fill="#54534A"/>
<path d="M248.479 51.3959V48.2495H255.682V50.6698C255.682 51.1538 255.442 51.3959 254.961 51.3959H248.479ZM248.479 44.1351C248.479 43.6511 248.719 43.4091 249.199 43.4091H254.961C255.442 43.4091 255.682 43.6511 255.682 44.1351V46.5554H248.479V44.1351ZM255.442 53.09C256.882 53.09 257.602 52.606 257.602 51.1538V43.8931C257.602 42.441 256.882 41.9569 255.442 41.9569H248.959C247.518 41.9569 246.798 42.441 246.798 43.8931L246.796 62.7709C246.796 62.7709 246.798 63.7391 248.239 63.4971L248.719 61.5609V53.09H255.442Z" fill="#54534A"/>
<path d="M253.521 58.6565C253.28 58.6565 253.04 58.6565 252.8 58.4145C252.56 57.9304 252.56 57.4464 253.04 57.2044L256.882 54.3001C257.362 54.0581 257.842 54.0581 258.082 54.5421C258.323 55.0262 258.323 55.5102 257.842 55.7522L254.001 58.6565C253.761 58.6565 253.761 58.6565 253.521 58.6565Z" fill="#54534A"/>
<path d="M245.116 62.5291L237.193 63.4972C236.713 63.4972 236.233 63.2551 236.233 62.7711C236.233 62.287 236.473 61.803 236.953 61.803L244.876 60.8349C245.357 60.8349 245.837 61.0769 245.837 61.561C246.077 62.045 245.597 62.5291 245.116 62.5291Z" fill="#54534A"/>
<path d="M244.395 53.0898H237.673C237.192 53.0898 236.952 52.6057 236.952 52.1217C236.952 51.6376 237.433 51.3956 237.673 51.3956H244.395C244.876 51.3956 245.356 51.8797 245.356 52.1217C245.356 52.8478 244.876 53.0898 244.395 53.0898Z" fill="#54534A"/>
<path d="M244.395 48.2491H237.673C237.192 48.2491 236.952 47.765 236.952 47.523C236.952 47.281 237.433 46.5549 237.673 46.5549H244.395C244.876 46.5549 245.356 47.0389 245.356 47.523C245.356 48.007 244.876 48.2491 244.395 48.2491Z" fill="#54534A"/>
<path d="M241.036 62.5289C240.556 62.5289 240.075 62.0449 240.075 61.5608V48.2495C240.075 47.7654 240.556 47.5234 241.036 47.5234C241.516 47.5234 241.996 48.0074 241.996 48.2495V61.5608C241.996 62.2869 241.516 62.5289 241.036 62.5289Z" fill="#54534A"/>
<path d="M257.842 63.7391C257.602 63.7391 257.362 63.7391 257.362 63.497C251.839 59.3826 250.879 53.09 250.879 52.848C250.879 52.3639 251.119 51.8799 251.599 51.8799C252.079 51.8799 252.56 52.1219 252.56 52.6059C252.56 52.6059 253.28 58.4145 258.322 62.0449C258.802 62.2869 258.802 63.013 258.562 63.255C258.322 63.497 258.082 63.7391 257.842 63.7391Z" fill="#54534A"/>
<path d="M236.714 46.5552C236.474 46.5552 236.474 46.5552 236.234 46.3131C235.754 46.0711 235.754 45.5871 235.994 45.103L237.914 41.9567C238.155 41.7147 238.395 41.4727 238.635 41.4727H243.197C243.437 41.4727 243.677 41.7147 243.917 41.9567L245.838 45.103C246.078 45.5871 246.078 46.0711 245.597 46.3131C245.117 46.5552 244.637 46.5552 244.397 46.0711L242.716 43.4089H239.115L237.434 46.0711C237.434 46.3132 237.194 46.5552 236.714 46.5552Z" fill="#54534A"/>
<path d="M221.349 51.1537H212.225V49.7016C212.225 49.2175 212.465 48.9755 212.945 48.9755H220.628C221.109 48.9755 221.349 49.2175 221.349 49.7016V51.1537ZM221.349 54.7841H212.225V52.6059H221.349V54.7841ZM221.349 57.9304C221.349 58.4145 221.109 58.6565 220.628 58.6565H212.945C212.465 58.6565 212.225 58.4145 212.225 57.9304V56.2362H221.349V57.9304ZM221.109 47.2813H212.705C211.265 47.2813 210.784 47.7654 210.784 49.2175V58.1724C210.784 59.6246 211.505 60.1086 212.705 60.1086H221.349C222.789 60.1086 223.509 59.6246 223.509 58.1724V49.2175C223.029 48.0074 222.549 47.2813 221.109 47.2813Z" fill="#54534A"/>
<path d="M206.223 53.5739V59.6245C205.983 59.8665 205.743 60.1086 205.502 60.3506H208.384C208.144 60.1086 208.144 59.8665 207.903 59.6245V53.3319C207.903 52.1218 207.423 51.3957 205.983 51.3957H205.262V53.0898C206.223 53.0898 206.223 53.0898 206.223 53.5739Z" fill="#54534A"/>
<path d="M214.385 45.345C214.145 45.345 213.905 45.103 213.665 44.861L212.224 42.4407C211.984 41.9567 212.224 41.4726 212.464 41.2306C212.944 40.9886 213.425 41.2306 213.665 41.4726L215.105 43.8929C215.345 44.3769 215.105 44.861 214.865 45.103C214.625 45.345 214.625 45.345 214.385 45.345Z" fill="#54534A"/>
<path d="M219.186 45.3453C218.946 45.3453 218.946 45.3453 218.706 45.3453C218.226 45.1033 218.226 44.6192 218.466 44.1352L219.907 41.7149C220.147 41.2309 220.627 41.2309 221.107 41.4729C221.587 41.7149 221.587 42.199 221.347 42.683L219.907 45.1033C219.907 45.1033 219.667 45.3453 219.186 45.3453Z" fill="#54534A"/>
<path d="M223.748 45.8291H209.822C209.342 45.8291 208.862 45.345 208.862 44.861C208.862 44.3769 209.342 44.1349 209.822 44.1349H223.748C224.228 44.1349 224.468 44.619 224.468 44.861C224.708 45.345 224.228 45.8291 223.748 45.8291Z" fill="#54534A"/>
<path d="M216.786 48.7335C216.305 48.7335 215.825 48.2494 215.825 48.0074V45.1031C215.825 44.6191 216.305 44.377 216.786 44.377C217.266 44.377 217.506 44.8611 217.506 45.1031V48.0074C217.746 48.2494 217.266 48.7335 216.786 48.7335Z" fill="#54534A"/>
<path d="M207.182 47.5235C206.941 47.5235 206.701 47.2815 206.461 47.2815C204.541 44.6192 204.06 44.1352 203.58 43.6511C203.34 43.4091 203.34 42.683 203.58 42.441C203.82 42.199 204.541 42.199 204.781 42.441C205.261 42.9251 205.741 43.4091 207.902 46.0714C208.142 46.5554 208.142 47.0395 207.662 47.2815C207.662 47.5235 207.422 47.5235 207.182 47.5235Z" fill="#54534A"/>
<path d="M206.702 53.0897H203.34C202.86 53.0897 202.38 52.6057 202.38 52.1216C202.38 51.6376 202.86 51.1535 203.34 51.1535H206.702C207.182 51.1535 207.662 51.6376 207.662 52.1216C207.662 52.6057 207.422 53.0897 206.702 53.0897Z" fill="#54534A"/>
<path d="M216.787 63.7389C214.866 63.7389 212.945 63.7388 211.745 63.4968C209.104 63.2548 207.663 61.8027 206.943 60.8346L204.302 63.2548C203.822 63.4968 203.341 63.4968 203.101 63.2548C202.861 62.7708 202.861 62.2867 203.101 62.0447L206.703 58.6563C206.943 58.4143 207.183 58.4143 207.423 58.4143C207.663 58.4143 207.903 58.6563 208.143 58.8984C208.143 58.8984 209.104 61.3186 211.985 61.5606C215.346 61.8027 224.47 61.5606 224.47 61.5606C224.95 61.5606 225.43 62.0447 225.43 62.5287C225.43 63.0128 224.95 63.4968 224.47 63.4968C224.23 63.4968 220.628 63.7389 216.787 63.7389Z" fill="#54534A"/>
<path d="M189.654 44.6188H171.647C171.167 44.6188 170.687 44.1348 170.687 43.6507C170.687 43.1667 171.167 42.6826 171.647 42.6826H189.654C190.135 42.6826 190.615 43.1667 190.615 43.6507C190.375 44.1348 190.135 44.6188 189.654 44.6188Z" fill="#54534A"/>
<path d="M188.454 53.5739H172.607C172.127 53.5739 171.647 53.0898 171.647 52.6058C171.647 52.1217 172.127 51.6377 172.607 51.6377H188.454C188.934 51.6377 189.414 52.1217 189.414 52.6058C189.414 53.0898 188.934 53.5739 188.454 53.5739Z" fill="#54534A"/>
<path d="M190.857 63.2547H170.208C169.728 63.2547 169.248 62.7706 169.248 62.2866C169.248 61.8025 169.728 61.3185 170.208 61.3185H190.857C191.337 61.3185 191.817 61.8025 191.817 62.2866C191.817 62.7706 191.337 63.2547 190.857 63.2547Z" fill="#54534A"/>
<path d="M180.531 63.2548C180.05 63.2548 179.57 62.7708 179.57 62.2867V43.8928C179.57 43.4088 180.05 42.9247 180.531 42.9247C181.011 42.9247 181.491 43.4088 181.491 43.8928V62.2867C181.491 62.7708 181.011 63.2548 180.531 63.2548Z" fill="#54534A"/>
<path d="M149.328 49.956L149.658 50.2878C150.096 50.7303 150.755 50.6197 151.304 50.1772C151.743 49.7347 151.852 48.9604 151.413 48.5179L151.084 48.186C150.645 47.7435 149.987 47.8541 149.438 48.2966C148.999 48.8497 148.889 49.6241 149.328 49.956Z" fill="#F89728"/>
<path d="M156.792 63.2307C156.462 63.2307 156.023 63.1201 155.804 62.7882L149.11 54.8233C148.671 54.2702 148.671 53.4958 149.219 53.0533C149.768 52.6108 150.536 52.6108 150.975 53.164L157.669 61.1288C158.108 61.682 158.108 62.4563 157.56 62.8988C157.45 63.1201 157.121 63.2307 156.792 63.2307Z" fill="#54534A"/>
<path d="M143.074 42.6548C142.415 42.6548 141.757 43.2079 141.757 43.9823V52.9428V62.0139C141.757 62.6777 142.306 63.3414 143.074 63.3414C143.732 63.3414 144.391 62.7883 144.391 62.0139V52.9428V43.9823C144.391 43.2079 143.842 42.6548 143.074 42.6548Z" fill="#54534A"/>
<path d="M153.171 48.2966L156.682 44.8673C157.121 44.4248 157.121 43.6504 156.573 43.0973C156.134 42.5442 155.365 42.5442 154.817 42.9867L151.305 46.416C150.866 46.8585 150.866 47.6329 151.415 48.186C151.963 48.6285 152.732 48.7391 153.171 48.2966Z" fill="#54534A"/>
<path d="M149.33 52.0577L145.818 55.487C145.379 55.9295 144.611 55.9295 144.062 55.3764C143.623 54.8233 143.513 54.0489 143.952 53.6064L147.464 50.1771C147.903 49.7346 148.671 49.7346 149.22 50.2877C149.659 50.8408 149.769 51.6152 149.33 52.0577Z" fill="#54534A"/>
<path d="M132.539 56.5934L132.21 56.8147C131.771 57.1465 131.661 57.8103 132.1 58.3634C132.539 58.9165 133.197 59.0271 133.636 58.6953L133.965 58.474C134.404 58.1421 134.514 57.4784 134.075 56.9253C133.746 56.3722 132.978 56.2615 132.539 56.5934Z" fill="#F89728"/>
<path d="M125.296 45.0885L123.759 43.0973C123.43 42.5442 122.662 42.5442 122.113 42.9867C121.564 43.4292 121.455 44.2035 121.784 44.646L123.32 46.6373C123.649 47.1904 124.418 47.1904 124.966 46.7479C125.515 46.416 125.735 45.6416 125.296 45.0885Z" fill="#54534A"/>
<path d="M133.855 60.9078L135.392 62.899C135.721 63.4521 136.489 63.4521 137.038 63.0096C137.586 62.5671 137.696 61.7928 137.367 61.3503L135.83 59.2484C135.501 58.6953 134.733 58.6953 134.184 59.1378C133.636 59.5803 133.526 60.3547 133.855 60.9078Z" fill="#54534A"/>
<path d="M122.772 42.7654C122.114 42.7654 121.455 43.3185 121.455 44.0929V52.9428V62.0139C121.455 62.6776 122.004 63.3414 122.772 63.3414C123.43 63.3414 124.089 62.7883 124.089 62.0139V52.9428V44.0929C124.089 43.3185 123.54 42.7654 122.772 42.7654Z" fill="#54534A"/>
<path d="M136.379 42.7654C135.721 42.7654 135.062 43.3185 135.062 44.0929V52.9428V62.0139C135.062 62.6776 135.611 63.3414 136.379 63.3414C137.038 63.3414 137.696 62.7883 137.696 62.0139V52.9428V44.0929C137.696 43.3185 137.148 42.7654 136.379 42.7654Z" fill="#54534A"/>
<path d="M125.185 49.1818L130.233 55.9298C130.563 56.4829 131.331 56.4829 131.879 56.1511C132.428 55.7086 132.648 54.9342 132.209 54.4917L127.161 47.633C126.831 47.0799 126.063 47.0799 125.514 47.4118C124.966 47.9649 124.856 48.7393 125.185 49.1818Z" fill="#54534A"/>
<path d="M105.871 56.5935V57.036C105.871 57.5891 106.42 58.0316 107.078 58.0316C107.737 58.0316 108.285 57.5891 108.285 57.036V56.5935C108.285 56.0404 107.737 55.5979 107.078 55.5979C106.42 55.5979 105.871 56.0404 105.871 56.5935Z" fill="#F89728"/>
<path d="M109.822 58.142H114.651C115.309 58.142 115.748 57.5889 115.748 56.8145C115.748 56.1508 115.199 55.4871 114.651 55.4871H109.822C109.164 55.4871 108.725 56.0402 108.725 56.8145C108.725 57.4783 109.164 58.142 109.822 58.142Z" fill="#54534A"/>
<path d="M118.711 61.4608L110.7 43.4292C110.481 42.9867 110.042 42.6548 109.493 42.6548C108.944 42.6548 108.505 42.9867 108.286 43.4292L100.275 61.4608C99.9454 62.1245 100.275 62.8989 100.933 63.1202C101.043 63.2308 101.262 63.2308 101.372 63.2308C101.921 63.2308 102.36 62.8989 102.579 62.4564L109.493 46.8585L116.407 62.4564C116.626 63.0095 117.065 63.2308 117.614 63.2308C117.833 63.2308 117.943 63.2308 118.053 63.1202C118.711 62.8989 119.041 62.1245 118.711 61.4608Z" fill="#54534A"/>
<path d="M85.5693 52.7215V53.164C85.5693 53.7171 86.1181 54.1596 86.7765 54.1596C87.435 54.1596 87.9837 53.7171 87.9837 53.164V52.7215C87.9837 52.1684 87.435 51.7259 86.7765 51.7259C86.1181 51.6153 85.5693 52.1684 85.5693 52.7215Z" fill="#F89728"/>
<path d="M88.3125 52.7215V53.164C88.3125 53.7171 88.8612 54.1596 89.5197 54.1596C90.1781 54.1596 90.7268 53.7171 90.7268 53.164V52.7215C90.7268 52.1684 90.1781 51.7259 89.5197 51.7259C88.8612 51.6153 88.3125 52.1684 88.3125 52.7215Z" fill="#F89728"/>
<path d="M91.0557 52.7215V53.164C91.0557 53.7171 91.6044 54.1596 92.2628 54.1596C92.9213 54.1596 93.47 53.7171 93.47 53.164V52.7215C93.47 52.1684 92.9213 51.7259 92.2628 51.7259C91.6044 51.6153 91.0557 52.1684 91.0557 52.7215Z" fill="#F89728"/>
<path d="M78.8748 54.1596H84.0326C84.6911 54.1596 85.1301 53.6065 85.1301 52.8321C85.1301 52.1684 84.5814 51.5046 84.0326 51.5046H78.8748C78.2163 51.5046 77.7773 52.0578 77.7773 52.8321C77.7773 53.6065 78.3261 54.1596 78.8748 54.1596Z" fill="#54534A"/>
<path d="M92.3733 60.6865H91.4953H84.1426V45.3098H91.4953H93.0317C93.5804 45.3098 94.0194 45.4204 94.4584 45.7523C95.2266 46.3054 95.5558 47.1904 95.5558 48.4072C95.5558 50.7303 94.8973 51.5047 94.4584 51.8366C94.2389 51.9472 93.9096 52.2791 93.9096 52.9428C93.9096 53.7172 94.4584 54.049 94.6778 54.1597C94.7876 54.2703 96.2142 54.6022 96.2142 57.0359C96.1045 60.4652 93.2512 60.6865 92.3733 60.6865ZM96.8727 52.9428C97.4214 52.0578 98.0798 50.2878 98.0798 48.2966C98.0798 44.3142 95.446 42.5442 93.1415 42.5442H91.4953H89.8492H82.8257C82.1672 42.5442 81.5088 43.0973 81.5088 43.8717V61.9033C81.5088 62.5671 82.0575 63.2308 82.8257 63.2308H88.642H91.3856H92.2635C96.6532 63.2308 98.6286 60.1333 98.6286 57.0359C98.7383 54.7128 97.6409 53.8278 96.8727 52.9428Z" fill="#54534A"/>
<path d="M63.731 58.9163C65.5966 58.9163 68.2304 58.0313 68.5596 56.0401C68.5596 55.9295 68.5596 55.7082 68.5596 55.7082C68.4499 55.2658 68.1207 55.5976 67.9012 55.7082C67.572 55.8189 65.4869 56.372 63.731 56.372C61.9751 56.372 59.7803 55.8189 59.5608 55.7082C59.3413 55.5976 59.0121 55.3764 58.9023 55.7082C58.9023 55.8189 58.9023 55.9295 58.9023 56.0401C59.2316 58.0313 61.8654 58.9163 63.731 58.9163Z" fill="#F89728"/>
<path d="M61.3157 51.5047V50.9515C61.3157 50.1772 60.5475 49.5134 59.6696 49.5134C58.7916 49.5134 58.0234 50.1772 58.0234 50.9515V51.5047C58.0234 52.279 58.7916 52.9428 59.6696 52.9428C60.6572 52.9428 61.3157 52.279 61.3157 51.5047Z" fill="#54534A"/>
<path d="M69.4368 51.5047V50.9515C69.4368 50.1772 68.6686 49.5134 67.7907 49.5134C66.9127 49.5134 66.1445 50.1772 66.1445 50.9515V51.5047C66.1445 52.279 66.9127 52.9428 67.7907 52.9428C68.6686 52.9428 69.4368 52.279 69.4368 51.5047Z" fill="#54534A"/>
<path d="M71.851 43.4292C71.5218 43.4292 71.0828 43.5398 70.8633 43.8717C70.3146 44.4248 70.3146 45.3098 70.8633 45.8629C72.8387 47.9648 73.9361 50.7304 73.7166 53.6066C73.4971 56.2615 72.29 58.6953 70.3146 60.4652C68.449 62.1246 66.1444 62.899 63.7301 62.899C63.5106 62.899 63.2911 62.899 63.0716 62.899C59.3404 62.6777 56.0481 60.244 54.5117 56.8147C54.0728 55.7084 53.7436 54.4916 53.7436 53.2747C53.7436 52.5003 53.0851 51.9472 52.3169 51.9472C51.5487 51.9472 51 52.611 51 53.3853C51.1097 54.934 51.439 56.4828 51.9877 57.9209C53.8533 62.3458 58.0235 65.3327 62.8521 65.6645C63.1814 65.6645 63.4009 65.6645 63.7301 65.6645C66.8029 65.6645 69.7659 64.5583 72.0705 62.4565C74.5946 60.244 76.1309 57.0359 76.4602 53.6066C76.6797 49.956 75.3627 46.3054 72.8387 43.6504C72.5095 43.6504 72.1802 43.4292 71.851 43.4292Z" fill="#F89728"/>
<path d="M63.4014 41.4381C63.4014 41.5487 63.4014 41.6594 63.4014 41.77V41.8806C63.5111 42.4337 64.0598 42.9868 64.7183 42.9868C65.9254 43.0975 67.0229 43.4293 68.1203 43.9824C68.4495 44.2037 68.8885 44.2037 69.2177 44.0931C69.5469 43.9825 69.8761 43.7612 70.0956 43.3187C70.2054 42.9868 70.3151 42.655 70.2054 42.3231C70.0956 41.8806 69.8762 41.5487 69.4372 41.3275C68.0105 40.6637 66.5839 40.2212 64.9378 40C64.6085 40 64.1696 40.1106 63.8403 40.3319C63.6209 40.6637 63.5111 40.9956 63.4014 41.4381Z" fill="#54534A"/>
<path d="M56.2667 44.2036C56.3765 44.3142 56.3765 44.4248 56.4862 44.5354C56.4862 44.5354 56.596 44.5354 56.596 44.646C57.0349 44.9779 57.8031 45.0885 58.2421 44.646C59.2298 43.9823 60.3272 43.5398 61.5343 43.2079C61.8636 43.0973 62.1928 42.8761 62.4123 42.5442C62.6318 42.2123 62.6318 41.7698 62.6318 41.438C62.522 41.1061 62.4123 40.7742 62.0831 40.553C61.7538 40.3317 61.3149 40.2211 60.8759 40.3317C59.3395 40.6636 57.9129 41.3273 56.596 42.2123C56.2667 42.4336 56.0472 42.7654 55.9375 43.0973C55.9375 43.5398 56.0472 43.8717 56.2667 44.2036Z" fill="#54534A"/>
<path d="M52.427 51.0624C52.5367 51.0624 52.6464 51.1731 52.7562 51.1731H52.8659C53.5244 51.1731 53.9633 50.7306 54.1828 50.1774C54.5121 49.0712 55.0608 47.965 55.829 46.9694C56.0484 46.6375 56.1582 46.3056 56.1582 45.8631C56.1582 45.5313 55.9387 45.0888 55.6095 44.8675C55.39 44.6463 55.0608 44.5356 54.6218 44.5356C54.1828 44.5356 53.7439 44.7569 53.5244 45.0888C52.5367 46.3056 51.8782 47.7437 51.4393 49.2925C51.3295 49.6243 51.3295 50.0668 51.549 50.3987C51.7685 50.7306 52.0977 50.9518 52.427 51.0624Z" fill="#54534A"/>
<path d="M719.847 361.048V355.181C719.847 346.966 711.666 339.924 702.317 339.924C692.968 339.924 684.788 346.966 684.788 355.181V361.048C684.788 369.263 692.968 376.305 702.317 376.305C712.835 376.305 719.847 369.263 719.847 361.048Z" fill="#54534A"/>
<path d="M806.334 361.048V355.181C806.334 346.966 798.154 339.924 788.805 339.924C779.456 339.924 771.275 346.966 771.275 355.181V361.048C771.275 369.263 779.456 376.305 788.805 376.305C798.154 376.305 806.334 369.263 806.334 361.048Z" fill="#54534A"/>
<path d="M832.038 275.378C828.532 275.378 823.857 276.551 821.52 280.072C815.677 285.94 815.677 295.328 821.52 301.196C842.555 323.494 854.241 352.833 851.904 383.345C849.567 411.511 836.712 437.329 815.677 456.106C795.81 473.709 771.269 481.924 745.56 481.924C743.222 481.924 740.885 481.924 738.548 481.924C698.815 479.577 663.756 453.759 647.396 417.379C642.721 405.643 639.215 392.734 639.215 379.825C639.215 371.61 632.204 365.742 624.023 365.742C615.843 365.742 610 372.783 610 380.998C611.169 397.428 614.674 413.858 620.518 429.114C640.384 476.057 684.792 507.743 736.211 511.263C739.717 511.263 742.054 511.263 745.56 511.263C778.281 511.263 809.834 499.528 834.375 477.23C861.253 453.759 877.614 419.726 881.12 383.345C883.457 344.618 869.433 305.89 842.555 277.725C839.049 277.725 835.543 275.378 832.038 275.378Z" fill="#F89728"/>
<path d="M742.056 254.256C742.056 255.43 742.056 256.603 742.056 257.777V258.951C743.224 264.818 749.067 270.686 756.079 270.686C768.934 271.86 780.62 275.38 792.306 281.248C795.812 283.595 800.487 283.595 803.992 282.422C807.498 281.248 811.004 278.901 813.341 274.207C814.51 270.686 815.679 267.165 814.51 263.645C813.341 258.951 811.004 255.43 806.33 253.083C791.138 246.041 775.946 241.347 758.416 239C754.91 239 750.236 240.174 746.73 242.521C744.393 246.041 743.224 249.562 742.056 254.256Z" fill="#54534A"/>
<path d="M666.089 283.595C667.257 284.768 667.257 285.942 668.426 287.115C668.426 287.115 669.595 287.115 669.595 288.289C674.269 291.809 682.45 292.983 687.124 288.289C697.642 281.247 709.328 276.553 722.183 273.033C725.688 271.859 729.194 269.512 731.531 265.991C733.869 262.47 733.869 257.776 733.869 254.256C732.7 250.735 731.531 247.214 728.026 244.867C724.52 242.52 719.845 241.346 715.171 242.52C698.81 246.041 683.618 253.082 669.595 262.47C666.089 264.818 663.752 268.338 662.583 271.859C662.583 276.553 663.752 280.074 666.089 283.595Z" fill="#54534A"/>
<path d="M625.196 356.355C626.365 356.355 627.534 357.529 628.702 357.529H629.871C636.883 357.529 641.557 352.835 643.894 346.967C647.4 335.231 653.243 323.496 661.423 312.934C663.761 309.413 664.929 305.892 664.929 301.198C664.929 297.677 662.592 292.983 659.086 290.636C656.749 288.289 653.243 287.115 648.569 287.115C643.894 287.115 639.22 289.463 636.883 292.983C626.365 305.892 619.353 321.149 614.679 337.579C613.51 341.099 613.51 345.793 615.847 349.314C618.185 352.835 621.69 355.182 625.196 356.355Z" fill="#54534A"/>
</g>
<defs>
<filter id="filter0_i_12_4080" x="51" y="128" width="402" height="174" filterUnits="userSpaceOnUse" color-interpolation-filters="sRGB">
<feFlood flood-opacity="0" result="BackgroundImageFix"/>
<feBlend mode="normal" in="SourceGraphic" in2="BackgroundImageFix" result="shape"/>
<feColorMatrix in="SourceAlpha" type="matrix" values="0 0 0 0 0 0 0 0 0 0 0 0 0 0 0 0 0 0 127 0" result="hardAlpha"/>
<feOffset dx="2" dy="4"/>
<feGaussianBlur stdDeviation="2"/>
<feComposite in2="hardAlpha" operator="arithmetic" k2="-1" k3="1"/>
<feColorMatrix type="matrix" values="0 0 0 0 0 0 0 0 0 0 0 0 0 0 0 0 0 0 0.25 0"/>
<feBlend mode="normal" in2="shape" result="effect1_innerShadow_12_4080"/>
</filter>
<clipPath id="clip0_12_4080">
<rect width="840" height="400" fill="white"/>
</clipPath>
</defs>
</svg>
