<svg width="840" height="400" viewBox="0 0 840 400" fill="none" xmlns="http://www.w3.org/2000/svg">
<g clip-path="url(#clip0_12_4225)">
<rect width="840" height="400" fill="#E2E2E2"/>
<text fill="black" xml:space="preserve" style="white-space: pre" font-family="Noto Sans TC" font-size="8" letter-spacing="0.05em"><tspan x="63" y="321.488">&#x975e;&#x672c;&#x4eba;&#x8acb;&#x52ff;&#x62c6;&#x95b1;&#xff0c;&#x7121;&#x6cd5;&#x6295;&#x905e;&#x8acb;&#x5bc4;&#x56de;</tspan></text>
<g filter="url(#filter0_i_12_4225)">
<rect x="51" y="128" width="400" height="170" rx="15" fill="#D4D4D4"/>
</g>
<rect x="746.25" y="30.25" width="63.5" height="76.5" stroke="black" stroke-width="0.5"/>
<path d="M777.624 36.4125C780.498 36.243 783.394 36.9504 785.943 38.262C788.53 39.6767 790.784 41.7178 792.391 44.1936C795.095 48.2757 795.714 53.5588 794.454 58.2451C793.791 60.5809 792.56 62.7325 791.005 64.5894C789.716 66.1662 788.117 67.4778 786.348 68.4799C783.74 69.9536 780.734 70.6609 777.742 70.6388C775.627 70.683 773.52 70.2262 771.567 69.4378C769.313 68.5388 767.323 67.0725 765.606 65.3778C763.293 62.9757 761.642 59.8957 761.141 56.5872C760.824 54.3694 760.699 52.0851 761.193 49.882C761.716 47.3104 762.895 44.8862 764.56 42.8525C766.277 40.6567 768.554 38.8883 771.111 37.7609C773.159 36.862 775.399 36.4788 777.624 36.4125ZM776.887 38.3946C775.193 38.5273 773.498 38.8662 771.936 39.5515C769.799 40.4946 767.876 41.9315 766.395 43.7367C764.958 45.3946 763.86 47.3546 763.293 49.4767C762.615 51.8125 762.696 54.303 763.116 56.6757C763.47 58.4957 764.14 60.2715 765.216 61.7894C766.631 63.9557 768.664 65.6578 770.89 66.9399C773.026 68.0894 775.458 68.7525 777.89 68.6494C780.048 68.6641 782.23 68.2588 784.204 67.3673C788.751 65.3115 792.206 60.9051 792.98 55.9609C793.673 51.3115 792.265 46.2567 788.854 42.9409C787.159 41.1873 785.044 39.8241 782.731 39.0578C780.859 38.402 778.855 38.2399 776.887 38.3946Z" fill="black"/>
<path d="M771.479 43.5159C773.299 43.5159 775.112 43.5159 776.932 43.5159C776.932 44.2306 776.932 44.938 776.932 45.6527C775.782 45.6527 774.633 45.6453 773.491 45.6748C773.469 46.478 773.469 47.2811 773.498 48.0843C774.198 47.6643 774.869 47.1927 775.554 46.7432C776.32 47.4801 777.013 48.2906 777.764 49.0422C777.344 49.5285 776.91 50.0001 776.446 50.4496C776.121 50.1106 775.79 49.779 775.458 49.4474C774.788 49.8748 774.124 50.3022 773.469 50.7443C773.469 51.4369 773.469 52.1369 773.476 52.8369C774.198 52.3801 774.869 51.8643 775.583 51.3927C776.335 52.2769 777.101 53.1464 777.846 54.0306C777.396 54.4359 776.976 54.8632 776.527 55.2685C776.217 54.8117 775.9 54.3622 775.591 53.9053C774.876 54.3696 774.169 54.8338 773.469 55.3127C773.469 55.6443 773.476 55.9759 773.483 56.3148C774.707 56.3443 775.93 56.3369 777.153 56.3369C777.153 57.0959 777.153 57.8622 777.153 58.6211C775.959 58.6211 774.758 58.6138 773.564 58.6359C773.55 59.358 773.542 60.0875 773.557 60.8096C774.78 60.839 776.003 60.8317 777.227 60.8317C777.227 61.5906 777.227 62.3569 777.227 63.1159C774.132 63.1159 771.037 63.1159 767.942 63.1159C767.942 62.379 767.942 61.6422 767.942 60.9053C769.143 60.9053 770.352 60.9053 771.553 60.9053C771.553 60.1464 771.553 59.3801 771.553 58.6211C770.352 58.6211 769.143 58.6211 767.942 58.6211C767.942 57.8843 767.942 57.1474 767.942 56.4106C769.143 56.4106 770.352 56.4106 771.553 56.4106C771.553 55.8211 771.553 55.2317 771.553 54.6422C771.31 54.8264 771.074 55.0106 770.831 55.1874C770.396 54.7896 769.954 54.399 769.512 54.0159C769.158 54.3474 768.812 54.6938 768.458 55.0327C768.053 54.6348 767.64 54.2443 767.206 53.8832C767.898 53.0727 768.664 52.3285 769.423 51.5843C770.116 52.0559 770.794 52.5496 771.472 53.0359C771.479 52.078 771.487 51.1127 771.479 50.1474C771.302 50.2727 771.133 50.3906 770.956 50.5159C770.602 50.1843 770.241 49.8453 769.866 49.5432C769.357 49.9485 768.863 50.3685 768.348 50.759C767.95 50.1843 767.537 49.6243 767.132 49.0569C768.009 48.3274 768.753 47.458 769.622 46.7359C770.227 47.2296 770.86 47.6864 771.472 48.1653C771.479 46.618 771.479 45.0632 771.479 43.5159Z" fill="black"/>
<path d="M778.7 43.5159C781.5 43.5159 784.3 43.5159 787.1 43.5159C787.1 45.7264 787.1 47.9369 787.1 50.1474C784.278 50.1474 781.448 50.1474 778.626 50.1474C778.582 47.9369 778.737 45.7264 778.7 43.5159ZM780.542 45.6527C780.542 46.3896 780.542 47.1264 780.542 47.8632C782.067 47.8632 783.585 47.8632 785.11 47.8632C785.11 47.1264 785.11 46.3896 785.11 45.6527C783.585 45.6527 782.067 45.6527 780.542 45.6527Z" fill="black"/>
<path d="M778.7 51.7683C781.552 51.7683 784.396 51.7683 787.248 51.7683C787.248 54.0525 787.248 56.3367 787.248 58.6209C785.162 58.6209 783.07 58.6209 780.984 58.6209C780.984 59.3799 780.984 60.1462 780.984 60.9052C783.025 60.9052 785.059 60.9052 787.1 60.9052C787.1 61.642 787.1 62.3788 787.1 63.1157C784.322 63.1157 781.552 63.1157 778.774 63.1157C778.774 60.8094 778.774 58.4957 778.774 56.1894C779.489 56.1894 780.196 56.1894 780.911 56.1894C780.911 55.5041 780.911 54.8115 780.911 54.1262C780.174 54.1262 779.437 54.1262 778.7 54.1262C778.7 53.3378 778.7 52.5567 778.7 51.7683ZM782.974 53.9788C782.974 54.7378 782.974 55.5041 782.974 56.263C783.652 56.263 784.33 56.2925 785.008 56.2409C785.03 56.2188 785.067 56.182 785.089 56.1673C785.14 55.4378 785.111 54.7083 785.111 53.9788C784.403 53.9788 783.689 53.9788 782.974 53.9788Z" fill="black"/>
<text fill="black" xml:space="preserve" style="white-space: pre" font-family="Noto Sans TC" font-size="10" letter-spacing="3.1em"><tspan x="752.5" y="83.86">&#x570b;&#x5167;</tspan></text>
<text fill="black" xml:space="preserve" style="white-space: pre" font-family="Noto Sans TC" font-size="10" letter-spacing="0.37em"><tspan x="752.45" y="98.86">&#x90f5;&#x8cc7;&#x5df2;&#x4ed8;</tspan></text>
<g clip-path="url(#clip1_12_4225)">
<path d="M101.537 30.4824H94.9912V32.2754H95.7912V42.9264H94.9912V44.6994H99.1562V47.3584H100.92V32.2754H101.537V30.4824ZM99.1562 42.9264H97.5612V40.5144H99.1562V42.9264ZM99.1562 38.4924H97.5612V36.4984H99.1562V38.4924ZM99.1562 34.7134H97.5612V32.2755H99.1562V34.7134Z" fill="#221714"/>
<path d="M103.025 35.1114L101.557 36.6284V38.7284H106.894V36.1044H105.204V36.9634H103.314L106.424 33.8204L105.29 32.6754L104.112 33.8634L103.326 33.0624L105.837 30.5394L103.524 30.4824L101.76 32.2474C101.76 32.2474 101.03 33.0274 101.925 33.9934L103.025 35.1114Z" fill="#221714"/>
<path d="M111.412 36.1046V36.9626H109.519L112.629 33.8206L111.489 32.6757L110.316 33.8636L109.529 33.0626L112.037 30.5397L109.725 30.4827L107.966 32.2476C107.966 32.2476 107.234 33.0276 108.125 33.9937L109.229 35.1116L107.761 36.6276V38.7286H113.1V36.1046H111.412Z" fill="#221714"/>
<path d="M106.895 39.3066H105.205V42.9257H103.316V39.3066H101.558V43.4067C101.558 44.6996 102.837 44.6996 102.837 44.6996H104.503L102.128 47.3586H104.154L106.39 44.6996C106.985 43.9767 106.895 43.3617 106.895 43.3617V39.3066Z" fill="#221714"/>
<path d="M111.391 42.9258H109.584V39.3069H107.715V47.3589H109.584V44.6989H111.867C113.029 44.6659 113.102 43.4629 113.102 43.4629V39.3069H111.391V42.9258Z" fill="#221714"/>
<path d="M122.838 31.7051H126.216V30.4822H128.06V31.7051H131.592V33.4922H128.06V35.6092H131.592V37.4312H128.06V39.4532H131.592V41.2992H128.06V42.5782C128.06 42.5782 128.105 43.1602 127.58 43.8912L124.959 47.3582H122.838L126.216 42.9261V41.2992H122.838V39.4532H126.216V37.4312H122.838V35.6092H126.216V33.4922H122.838V31.7051Z" fill="#221714"/>
<path d="M132.665 30.4823V47.3584H134.604V32.4273H138.097L135.746 37.4304L138.367 39.7583V43.1754H135.203V45.0594H138.602C138.602 45.0594 140.239 45.2243 140.239 43.5444V39.6174C140.239 39.6174 140.304 38.9594 139.69 38.4314L138.025 36.9624L140.037 32.5704C140.037 32.5704 140.653 30.4314 138.759 30.4823L132.665 30.4823Z" fill="#221714"/>
<path d="M150.686 32.7617L153.035 30.4077H155.896L158.19 32.7047V35.5257L154.499 31.8107L150.748 35.5857L150.686 32.7617Z" fill="#221714"/>
<path d="M151.865 36.3047V34.4478H157.064V36.3047H155.429V38.2958H157.844V40.1078H155.429V45.5278C155.429 45.5278 156.661 45.4928 157.477 45.0598L158.225 46.7588C158.225 46.7588 157.418 47.3868 155.429 47.3588H151.05V45.5278H153.455V40.1078H151.05V38.2958H153.455V36.3047H151.865Z" fill="#221714"/>
<path d="M152.694 41.1074H151.051V44.6994H152.694V41.1074Z" fill="#221714"/>
<path d="M157.846 41.0933H156.222V44.3223H157.846V41.0933Z" fill="#221714"/>
<path d="M165.041 43.6814C165.706 43.3554 166.844 42.6724 168.039 41.5044L166.898 40.2384C166.898 40.2384 166.126 41.2034 164.432 42.1724C164.029 40.6054 164.184 39.0934 164.184 39.0934H167.775V32.1034C167.781 30.5544 166.171 30.4824 166.171 30.4824H159.261V45.5274H158.623V47.3584H161.203C163.168 47.3584 163.801 46.5494 163.801 46.5494L163.044 45.0594C162.178 45.6204 161.203 45.5274 161.203 45.5274V39.0934H162.429C162.34 48.2074 167.71 47.3584 167.71 47.3584V45.5274C166.4 45.3124 165.568 44.5824 165.041 43.6814ZM161.203 32.1544H165.797V33.7224H161.203V32.1544ZM161.203 35.6094H165.797V37.0924H161.203V35.6094Z" fill="#221714"/>
<path d="M194.809 31.3242H184.871V33.2672H194.809V31.3242Z" fill="#221714"/>
<path d="M184.919 36.1045H194.862V38.0365H193.27V45.5275C193.27 45.5275 193.083 47.3765 191.259 47.3585H187.705V45.5275H191.259V38.0365H184.919V36.1045Z" fill="#221714"/>
<path d="M182.002 30C182.002 30 179.902 32.67 177.621 34.137L178.575 35.609C178.575 35.609 181.312 33.787 183.371 31.354L182.002 30Z" fill="#221714"/>
<path d="M183.371 36.0156L181.905 34.7756C181.905 34.7756 179.262 38.4316 177.35 39.7126L178.559 41.0936C178.559 41.0936 178.858 40.8477 179.337 40.4216V47.3586H181.291V38.4957C181.987 37.7617 182.722 36.9106 183.371 36.0156Z" fill="#221714"/>
<path d="M51 30.4414H57.11V52.5844H63.225V30.4414H69.337V58.7264H57.11C57.11 58.7264 51 58.6685 51 52.5844V30.4414Z" fill="#054A97"/>
<path d="M69.3359 44.6524L76.4399 37.4974L69.3359 30.4414H77.9379L85.0349 37.5914L77.9609 44.6564L69.3359 44.6524Z" fill="#108194"/>
<path d="M69.3359 58.7267L76.4659 51.6387L69.3579 44.6567H77.9609L85.0669 51.7337L78.0869 58.7267H69.3359Z" fill="#D71439"/>
<path d="M95.0439 56.1072C95.0439 56.8433 95.1299 57.4193 95.3369 57.8282C95.6939 58.5623 96.3879 58.9233 97.4049 58.9233C98.4189 58.9233 99.1099 58.5623 99.4799 57.8282C99.6779 57.4193 99.7789 56.8433 99.7789 56.1072V52.6973H98.9449V56.4393C98.9449 56.8843 98.8859 57.2322 98.7519 57.4963C98.4979 57.9593 98.0329 58.2043 97.3399 58.2043C96.7629 58.2043 96.3559 57.9783 96.1129 57.5433C95.9419 57.2533 95.8629 56.8882 95.8629 56.4393V52.6973H95.0439V56.1072Z" fill="#221714"/>
<path d="M101.036 58.7568V52.6968H101.999L105.039 57.6108V52.6968H105.807V58.7568H104.898L101.818 53.8518V58.7568H101.036Z" fill="#221714"/>
<path d="M108.094 52.6973H107.279V58.7573H108.094V52.6973Z" fill="#221714"/>
<path d="M110.46 57.5173C110.123 57.0513 109.953 56.4883 109.953 55.8132C109.953 54.9813 110.147 54.3453 110.542 53.9083C110.94 53.4753 111.448 53.2623 112.07 53.2623C112.711 53.2623 113.221 53.4813 113.589 53.9142C113.96 54.3533 114.133 54.9222 114.133 55.6363C114.133 56.3132 113.984 56.9062 113.659 57.4283C113.34 57.9432 112.819 58.2043 112.098 58.2043C111.34 58.2043 110.799 57.9713 110.46 57.5173ZM109.719 53.6622C109.315 54.2422 109.11 54.9352 109.11 55.7643C109.11 56.6663 109.348 57.4203 109.821 58.0123C110.353 58.6273 111.079 58.9352 112.006 58.9352C112.995 58.9352 113.762 58.5823 114.292 57.8813C114.747 57.2812 114.978 56.5353 114.978 55.6213C114.978 54.7943 114.775 54.1053 114.378 53.5703C113.865 52.8832 113.079 52.5312 112.023 52.5312C111.002 52.5313 110.236 52.9183 109.719 53.6622Z" fill="#221714"/>
<path d="M116.729 58.7568V53.8518L119.809 58.7568H120.725V52.6968H119.951V57.6108L116.915 52.6968H115.948V58.7568H116.729Z" fill="#221714"/>
<path d="M125.117 53.3868H126.566C126.92 53.3868 127.194 53.4278 127.373 53.5058C127.69 53.6428 127.847 53.9038 127.847 54.3048C127.847 54.6918 127.7 54.9648 127.394 55.1188C127.207 55.2138 126.943 55.2638 126.593 55.2638H125.117V53.3868ZM125.117 55.9248H126.726C127.074 55.9248 127.343 55.9698 127.552 56.0568C127.95 56.2228 128.142 56.5098 128.142 56.9548C128.142 57.2088 128.076 57.4408 127.938 57.6228C127.733 57.9078 127.373 58.0608 126.875 58.0608H125.117V55.9248ZM126.858 58.7568C127.653 58.7568 128.226 58.5238 128.588 58.0508C128.837 57.7378 128.961 57.3808 128.961 56.9908C128.961 56.5238 128.821 56.1678 128.552 55.9118C128.405 55.7538 128.167 55.6098 127.858 55.4978C128.07 55.3848 128.235 55.2718 128.338 55.1408C128.561 54.8948 128.67 54.5838 128.67 54.2048C128.67 53.8748 128.579 53.5908 128.405 53.3318C128.103 52.9178 127.604 52.6968 126.898 52.6968H124.316V58.7568H126.858Z" fill="#221714"/>
<path d="M132.109 53.5948L133.02 56.2778H131.137L132.109 53.5948ZM130.253 58.7568L130.905 56.9508H133.283L133.895 58.7568H134.779L132.606 52.6968H131.679L129.422 58.7568H130.253Z" fill="#221714"/>
<path d="M136.307 58.7568V53.8518L139.383 58.7568H140.298V52.6968H139.528V57.6108L136.494 52.6968H135.523V58.7568H136.307Z" fill="#221714"/>
<path d="M141.587 58.7568V52.6968H142.376V55.6588L145.316 52.6968H146.436L143.941 55.1408L146.5 58.7568H145.442L143.342 55.7208L142.376 56.6508V58.7568H141.587Z" fill="#221714"/>
<path d="M150.551 57.5173C150.212 57.0513 150.039 56.4883 150.039 55.8132C150.039 54.9813 150.245 54.3453 150.637 53.9083C151.028 53.4753 151.532 53.2623 152.154 53.2623C152.803 53.2623 153.305 53.4813 153.675 53.9142C154.046 54.3533 154.223 54.9222 154.223 55.6363C154.223 56.3132 154.07 56.9062 153.748 57.4283C153.429 57.9432 152.906 58.2043 152.189 58.2043C151.428 58.2043 150.882 57.9713 150.551 57.5173ZM149.81 53.6622C149.403 54.2422 149.196 54.9352 149.196 55.7643C149.196 56.6663 149.435 57.4203 149.908 58.0123C150.436 58.6273 151.164 58.9352 152.09 58.9352C153.081 58.9352 153.838 58.5823 154.38 57.8813C154.837 57.2812 155.062 56.5353 155.062 55.6213C155.062 54.7943 154.863 54.1053 154.469 53.5703C153.956 52.8832 153.17 52.5312 152.104 52.5312C151.088 52.5313 150.326 52.9183 149.81 53.6622Z" fill="#221714"/>
<path d="M156.111 58.7568V52.6968H160.29V53.4448H156.925V55.2838H159.882V56.0008H156.925V58.7568H156.111Z" fill="#221714"/>
<path d="M162.985 52.6973H167.875V53.4243H165.84V58.7573H165.018V53.4243H162.985V52.6973Z" fill="#221714"/>
<path d="M170.794 53.5948L171.702 56.2778H169.821L170.794 53.5948ZM168.94 58.7568L169.589 56.9508H171.965L172.575 58.7568H173.471L171.291 52.6968H170.367L168.101 58.7568H168.94Z" fill="#221714"/>
<path d="M175.22 52.6973H174.395V58.7573H175.22V52.6973Z" fill="#221714"/>
<path d="M176.052 52.6973H176.942L178.073 57.6333L179.437 52.6973H180.316L181.684 57.6333L182.816 52.6973H183.708L182.122 58.7573H181.267L179.879 53.7383L178.486 58.7573H177.628L176.052 52.6973Z" fill="#221714"/>
<path d="M186.634 53.5948L187.55 56.2778H185.668L186.634 53.5948ZM184.781 58.7568L185.428 56.9508H187.809L188.423 58.7568H189.314L187.129 52.6968H186.21L183.942 58.7568H184.781Z" fill="#221714"/>
<path d="M190.835 58.7568V53.8518L193.919 58.7568H194.842V52.6968H194.057V57.6108L191.022 52.6968H190.063V58.7568H190.835Z" fill="#221714"/>
</g>
<path d="M640 308.949L730.503 217.844L640 128L749.587 128L840 219.041L749.88 309L640 308.949Z" fill="#108194"/>
<path d="M640 486L730.649 396.834L640.28 309L749.656 309L840 398.028L751.258 486L640 486Z" fill="#D71439"/>
</g>
<defs>
<filter id="filter0_i_12_4225" x="51" y="128" width="402" height="174" filterUnits="userSpaceOnUse" color-interpolation-filters="sRGB">
<feFlood flood-opacity="0" result="BackgroundImageFix"/>
<feBlend mode="normal" in="SourceGraphic" in2="BackgroundImageFix" result="shape"/>
<feColorMatrix in="SourceAlpha" type="matrix" values="0 0 0 0 0 0 0 0 0 0 0 0 0 0 0 0 0 0 127 0" result="hardAlpha"/>
<feOffset dx="2" dy="4"/>
<feGaussianBlur stdDeviation="2"/>
<feComposite in2="hardAlpha" operator="arithmetic" k2="-1" k3="1"/>
<feColorMatrix type="matrix" values="0 0 0 0 0 0 0 0 0 0 0 0 0 0 0 0 0 0 0.25 0"/>
<feBlend mode="normal" in2="shape" result="effect1_innerShadow_12_4225"/>
</filter>
<clipPath id="clip0_12_4225">
<rect width="840" height="400" fill="white"/>
</clipPath>
<clipPath id="clip1_12_4225">
<rect width="143.862" height="28.9351" fill="white" transform="translate(51 30)"/>
</clipPath>
</defs>
</svg>
