<svg width="840" height="400" viewBox="0 0 840 400" fill="none" xmlns="http://www.w3.org/2000/svg">
<g clip-path="url(#clip0_12_3950)">
<rect width="840" height="400" fill="#E2E2E2"/>
<text fill="black" xml:space="preserve" style="white-space: pre" font-family="Noto Sans TC" font-size="8" letter-spacing="0.05em"><tspan x="63" y="321.488">&#x975e;&#x672c;&#x4eba;&#x8acb;&#x52ff;&#x62c6;&#x95b1;&#xff0c;&#x7121;&#x6cd5;&#x6295;&#x905e;&#x8acb;&#x5bc4;&#x56de;</tspan></text>
<g filter="url(#filter0_i_12_3950)">
<rect x="51" y="128" width="400" height="170" rx="15" fill="#D4D4D4"/>
</g>
<rect x="746.25" y="30.25" width="63.5" height="76.5" stroke="black" stroke-width="0.5"/>
<path d="M777.624 36.4125C780.498 36.243 783.394 36.9504 785.943 38.262C788.53 39.6767 790.784 41.7178 792.391 44.1936C795.095 48.2757 795.714 53.5588 794.454 58.2451C793.791 60.5809 792.56 62.7325 791.005 64.5894C789.716 66.1662 788.117 67.4778 786.348 68.4799C783.74 69.9536 780.734 70.6609 777.742 70.6388C775.627 70.683 773.52 70.2262 771.567 69.4378C769.313 68.5388 767.323 67.0725 765.606 65.3778C763.293 62.9757 761.642 59.8957 761.141 56.5872C760.824 54.3694 760.699 52.0851 761.193 49.882C761.716 47.3104 762.895 44.8862 764.56 42.8525C766.277 40.6567 768.554 38.8883 771.111 37.7609C773.159 36.862 775.399 36.4788 777.624 36.4125ZM776.887 38.3946C775.193 38.5273 773.498 38.8662 771.936 39.5515C769.799 40.4946 767.876 41.9315 766.395 43.7367C764.958 45.3946 763.86 47.3546 763.293 49.4767C762.615 51.8125 762.696 54.303 763.116 56.6757C763.47 58.4957 764.14 60.2715 765.216 61.7894C766.631 63.9557 768.664 65.6578 770.89 66.9399C773.026 68.0894 775.458 68.7525 777.89 68.6494C780.048 68.6641 782.23 68.2588 784.204 67.3673C788.751 65.3115 792.206 60.9051 792.98 55.9609C793.673 51.3115 792.265 46.2567 788.854 42.9409C787.159 41.1873 785.044 39.8241 782.731 39.0578C780.859 38.402 778.855 38.2399 776.887 38.3946Z" fill="black"/>
<path d="M771.479 43.5159C773.299 43.5159 775.112 43.5159 776.932 43.5159C776.932 44.2306 776.932 44.938 776.932 45.6527C775.782 45.6527 774.633 45.6453 773.491 45.6748C773.469 46.478 773.469 47.2811 773.498 48.0843C774.198 47.6643 774.869 47.1927 775.554 46.7432C776.32 47.4801 777.013 48.2906 777.764 49.0422C777.344 49.5285 776.91 50.0001 776.446 50.4496C776.121 50.1106 775.79 49.779 775.458 49.4474C774.788 49.8748 774.124 50.3022 773.469 50.7443C773.469 51.4369 773.469 52.1369 773.476 52.8369C774.198 52.3801 774.869 51.8643 775.583 51.3927C776.335 52.2769 777.101 53.1464 777.846 54.0306C777.396 54.4359 776.976 54.8632 776.527 55.2685C776.217 54.8117 775.9 54.3622 775.591 53.9053C774.876 54.3696 774.169 54.8338 773.469 55.3127C773.469 55.6443 773.476 55.9759 773.483 56.3148C774.707 56.3443 775.93 56.3369 777.153 56.3369C777.153 57.0959 777.153 57.8622 777.153 58.6211C775.959 58.6211 774.758 58.6138 773.564 58.6359C773.55 59.358 773.542 60.0875 773.557 60.8096C774.78 60.839 776.003 60.8317 777.227 60.8317C777.227 61.5906 777.227 62.3569 777.227 63.1159C774.132 63.1159 771.037 63.1159 767.942 63.1159C767.942 62.379 767.942 61.6422 767.942 60.9053C769.143 60.9053 770.352 60.9053 771.553 60.9053C771.553 60.1464 771.553 59.3801 771.553 58.6211C770.352 58.6211 769.143 58.6211 767.942 58.6211C767.942 57.8843 767.942 57.1474 767.942 56.4106C769.143 56.4106 770.352 56.4106 771.553 56.4106C771.553 55.8211 771.553 55.2317 771.553 54.6422C771.31 54.8264 771.074 55.0106 770.831 55.1874C770.396 54.7896 769.954 54.399 769.512 54.0159C769.158 54.3474 768.812 54.6938 768.458 55.0327C768.053 54.6348 767.64 54.2443 767.206 53.8832C767.898 53.0727 768.664 52.3285 769.423 51.5843C770.116 52.0559 770.794 52.5496 771.472 53.0359C771.479 52.078 771.487 51.1127 771.479 50.1474C771.302 50.2727 771.133 50.3906 770.956 50.5159C770.602 50.1843 770.241 49.8453 769.866 49.5432C769.357 49.9485 768.863 50.3685 768.348 50.759C767.95 50.1843 767.537 49.6243 767.132 49.0569C768.009 48.3274 768.753 47.458 769.622 46.7359C770.227 47.2296 770.86 47.6864 771.472 48.1653C771.479 46.618 771.479 45.0632 771.479 43.5159Z" fill="black"/>
<path d="M778.7 43.5159C781.5 43.5159 784.3 43.5159 787.1 43.5159C787.1 45.7264 787.1 47.9369 787.1 50.1474C784.278 50.1474 781.448 50.1474 778.626 50.1474C778.582 47.9369 778.737 45.7264 778.7 43.5159ZM780.542 45.6527C780.542 46.3896 780.542 47.1264 780.542 47.8632C782.067 47.8632 783.585 47.8632 785.11 47.8632C785.11 47.1264 785.11 46.3896 785.11 45.6527C783.585 45.6527 782.067 45.6527 780.542 45.6527Z" fill="black"/>
<path d="M778.7 51.7683C781.552 51.7683 784.396 51.7683 787.248 51.7683C787.248 54.0525 787.248 56.3367 787.248 58.6209C785.162 58.6209 783.07 58.6209 780.984 58.6209C780.984 59.3799 780.984 60.1462 780.984 60.9052C783.025 60.9052 785.059 60.9052 787.1 60.9052C787.1 61.642 787.1 62.3788 787.1 63.1157C784.322 63.1157 781.552 63.1157 778.774 63.1157C778.774 60.8094 778.774 58.4957 778.774 56.1894C779.489 56.1894 780.196 56.1894 780.911 56.1894C780.911 55.5041 780.911 54.8115 780.911 54.1262C780.174 54.1262 779.437 54.1262 778.7 54.1262C778.7 53.3378 778.7 52.5567 778.7 51.7683ZM782.974 53.9788C782.974 54.7378 782.974 55.5041 782.974 56.263C783.652 56.263 784.33 56.2925 785.008 56.2409C785.03 56.2188 785.067 56.182 785.089 56.1673C785.14 55.4378 785.111 54.7083 785.111 53.9788C784.403 53.9788 783.689 53.9788 782.974 53.9788Z" fill="black"/>
<text fill="black" xml:space="preserve" style="white-space: pre" font-family="Noto Sans TC" font-size="10" letter-spacing="3.1em"><tspan x="752.5" y="83.86">&#x570b;&#x5167;</tspan></text>
<text fill="black" xml:space="preserve" style="white-space: pre" font-family="Noto Sans TC" font-size="10" letter-spacing="0.37em"><tspan x="752.45" y="98.86">&#x90f5;&#x8cc7;&#x5df2;&#x4ed8;</tspan></text>
<path d="M74.833 46.3311C74.8164 46.3428 74.8497 46.3271 74.833 46.3311C74.833 46.3311 74.8311 46.4272 75.111 46.6243C76.8662 48.0393 77.7941 49.4034 77.7824 52.1904C77.7697 55.6677 74.7586 58.1929 71.3375 58.1929V63C77.2939 63 82.7041 58.746 82.7041 52.6846C82.7041 50.5145 82.1139 48.3786 80.6397 46.2967C80.7053 46.2124 81.0224 45.8358 81.2828 45.371C81.6479 44.7297 81.7155 43.9461 81.7155 41.3317V30.0004H66.4373V39.0321H61.5693V43.9893H71.4158V35.0802H76.9122V42.7674C76.9122 42.7674 77.1363 44.9121 74.833 46.3311Z" fill="#009E9C"/>
<path d="M61.6178 30H60.2024V30.0078C57.6084 30.0745 54.8939 30.8963 53.0879 32.9527C51.1811 35.1268 51 37.0547 51 40.2398V62.9946H66.5171V54.062H71.429V49.047H61.5738V58.0493H55.9394V39.1896C55.9394 39.1896 55.5723 35.0915 60.4941 34.9806L61.6207 34.9247L61.6178 30Z" fill="#008FC7"/>
<path d="M148.273 60.4189H153.177V59.3638H148.273V60.4189ZM155.592 60.4091H160.5V59.3481H155.592V60.4091ZM148.273 57.7016H153.177V56.6444H148.273V57.7016ZM155.592 57.6986H160.5V56.6376H155.592V57.6986ZM145.632 62.6538V54.8744H161.364C161.726 54.8744 162.136 55.0931 162.136 55.0931C162.727 55.3853 163.108 55.9443 163.14 56.5935V62.6538H160.5V62.1194H148.263V62.6538H145.632Z" fill="black"/>
<path d="M150.193 52.2462H158.114V50.8889H150.193V52.2462ZM160.584 50.53C160.584 50.5683 160.584 53.7387 160.584 53.7387L147.898 53.7495V49.3288H159.049C160.674 49.3268 160.584 50.53 160.584 50.53Z" fill="black"/>
<path d="M147.888 48.4864H160.584V46.8271H147.888V48.4864Z" fill="black"/>
<path d="M144.562 48.907V43.8037H152.965V42.4848H155.503V43.7204H162.138C162.138 43.7204 163.838 43.8488 163.838 45.2717V48.907H161.527V45.9837H147.001V48.907H144.562Z" fill="black"/>
<path d="M230.462 45.7577H240.679V43.3787H230.462V45.7577Z" fill="black"/>
<path d="M241.466 51.1491V48.7269H229.379V51.1932H236.445L236.453 58.7912C236.453 58.9099 236.372 59.4483 236.213 59.6346C236.058 59.8238 235.935 60.4407 233.772 60.3809L234.841 62.3843C237.067 63.0119 238.351 61.0242 238.222 61.2183C238.043 61.49 238.828 60.4466 238.828 59.3365L238.82 51.1491H241.466Z" fill="black"/>
<path d="M225.909 42.4846L228.178 43.3407C226.888 46.0375 225.403 48.0556 223.718 49.4217L221.671 48.0556C223.592 46.4925 225.006 44.6361 225.909 42.4846ZM224.814 54.5906C224.305 55.0555 223.814 55.4507 223.337 55.7704L221.404 54.2817C223.712 52.6607 225.487 50.6396 226.744 48.2351L228.936 49.2412C228.368 50.2219 227.806 51.0898 227.265 51.8478V62.4985H224.814V54.5906Z" fill="black"/>
<path fill-rule="evenodd" clip-rule="evenodd" d="M93.1354 53.4087V62.7723H95.7364V61.7319H108.221V62.7723H110.822V53.4087H93.1354ZM95.7364 59.6511V55.4895H108.221V59.6511H95.7364Z" fill="black"/>
<path d="M92.6152 49.2472L97.8172 42.4846H100.938L95.7364 49.2472H108.221L105.62 45.0856H108.741L111.342 49.2472V51.8482H92.6152V49.2472Z" fill="black"/>
<path d="M117.585 59.1309H123.307V51.328H118.105V48.727H123.307V42.4846H126.428V60.1713L124.868 61.7319H117.585V59.1309Z" fill="black"/>
<path d="M137.873 59.1309H132.15V53.9289L137.873 48.727L136.312 46.6462L132.15 50.2876V42.4846H129.029V61.7319H137.873V59.1309Z" fill="black"/>
<path d="M187.621 56.4218C187.291 57.326 186.402 58.2242 185.497 58.4762C185 58.592 184.675 58.6783 184.067 58.537V45.5651H187.188C186.721 47.2567 186.13 49.015 185.606 50.6792C185.772 50.9861 186.13 51.2675 186.324 51.6088C187.231 53.016 188.113 54.6194 187.621 56.4218ZM188.177 50.1869L189.782 44.862C190.019 43.9677 189.212 43.137 188.379 43.137L181.656 43.138V62.7195H184.101V59.1803C184.101 59.1803 184.832 60.2698 185.225 60.818C186.013 60.8474 186.489 60.615 187.162 60.3287C188.767 59.551 189.862 57.9134 190.089 56.2188C190.256 53.8937 189.527 51.8805 188.177 50.1869Z" fill="black"/>
<path d="M180.814 51.8157V49.2867H177.302L177.31 47.3675H180.734V44.9385H177.31V42.6497H174.65L174.658 44.9385H170.652V47.4185H174.65L174.648 49.2994H170.652V51.7775H174.658V53.6309H170.713V56.159L174.546 56.1629C174.401 58.9999 172.149 60.7857 172.149 60.7857L173.599 62.7195C177.164 60.7239 177.331 56.1806 177.331 56.1806H180.814V53.6309H177.31V51.8157H180.814Z" fill="black"/>
<path d="M208.042 46.9967V45.2443C208.042 45.2306 208.064 45.1061 208.064 45.1061L208.222 45.06H213.025C213.157 45.06 213.193 45.0982 213.2 45.2365C213.2 45.2365 213.198 46.6408 213.198 46.9967H208.042ZM212.987 51.0056H208.042V49.0708H213.198V50.783C213.198 50.9585 213.155 51.0056 212.987 51.0056ZM216.508 60.6875C215.202 59.8343 214.069 58.7968 213.115 57.6132C214.345 56.6668 215.379 55.746 216.154 54.8742L216.287 54.7242L214.904 53.1816L214.74 53.365C214.124 54.0456 213.22 54.8556 212.106 55.7617C211.84 55.0213 211.65 54.127 211.547 53.0738H214.568C215.021 53.0738 215.291 52.8041 215.314 52.3265V43.7136C215.314 43.2615 215.04 42.9967 214.583 42.9967H206.635C206.191 42.9967 205.928 43.2615 205.928 43.7136V60.0265C205.659 60.0912 204.531 60.3688 204.531 60.3688L204.6 60.5933L205.114 62.4536L205.324 62.4095C207.699 61.9035 209.725 61.2729 211.345 60.5325L211.53 60.4511L210.846 58.4094L210.624 58.5036C209.892 58.8125 209.015 59.1283 208.042 59.4411V53.0738H209.43C209.601 55.6323 210.424 57.8318 211.916 59.596C212.319 60.1775 213.256 61.0435 214.767 62.2408L214.904 62.3497L216.769 60.8611L216.508 60.6875Z" fill="black"/>
<path d="M200.485 45.5659C200.485 45.5659 198.981 47.5174 197.557 48.5108L203.567 48.5088C202.68 47.9695 200.485 45.5659 200.485 45.5659ZM204.615 61.0355L196.66 62.531L195.96 60.2716L199.271 59.7352V58.7967C199.271 58.7967 197.759 59.0674 197.571 58.6182C197.024 57.4562 196.534 56.2088 196.066 54.9526H198.3C198.476 55.3203 199.172 56.8864 199.286 57.2287L199.288 53.8366H195.977V51.7694H199.324V50.4927H197.115V48.753L196.731 49.0854L195.199 47.4125C196.713 46.4416 198.773 44.5509 199.869 42.9476H201.153C202.267 44.547 204.062 46.3916 205.877 47.3889L204.228 49.0815L203.878 48.7412V50.4927H201.67V51.7616H204.834V53.8366H201.67V56.5334C202.161 55.9862 202.843 54.9379 202.843 54.9379L205.006 54.9183C204.535 55.8646 203.832 57.1836 203.237 57.8014C202.84 58.2064 201.67 58.4231 201.67 58.4231V59.3361L204.371 58.8546C204.371 58.8546 204.68 60.3795 204.672 60.3236" fill="black"/>
<path d="M840.438 392.499C840.23 392.646 840.646 392.449 840.438 392.499C840.438 392.499 840.413 393.702 843.919 396.17C865.897 413.89 877.517 430.971 877.37 465.869C877.21 509.413 839.506 541.033 796.667 541.033V601.228C871.253 601.228 939 547.959 939 472.058C939 444.883 931.609 418.138 913.149 392.069C913.97 391.013 917.942 386.297 921.202 380.477C925.774 372.446 926.62 362.635 926.62 329.897V188.006H735.306V301.101H674.35V363.175H797.647V251.615H866.473V347.874C866.473 347.874 869.28 374.73 840.438 392.499Z" fill="#009E9C"/>
<path d="M674.957 188H657.232V188.098C624.75 188.933 590.76 199.224 568.145 224.974C544.268 252.198 542 276.34 542 316.224V601.16H736.305V489.305H797.813V426.507H674.405V539.234H603.851V303.072C603.851 303.072 599.255 251.756 660.885 250.368L674.993 249.668L674.957 188Z" fill="#008FC7"/>
</g>
<defs>
<filter id="filter0_i_12_3950" x="51" y="128" width="402" height="174" filterUnits="userSpaceOnUse" color-interpolation-filters="sRGB">
<feFlood flood-opacity="0" result="BackgroundImageFix"/>
<feBlend mode="normal" in="SourceGraphic" in2="BackgroundImageFix" result="shape"/>
<feColorMatrix in="SourceAlpha" type="matrix" values="0 0 0 0 0 0 0 0 0 0 0 0 0 0 0 0 0 0 127 0" result="hardAlpha"/>
<feOffset dx="2" dy="4"/>
<feGaussianBlur stdDeviation="2"/>
<feComposite in2="hardAlpha" operator="arithmetic" k2="-1" k3="1"/>
<feColorMatrix type="matrix" values="0 0 0 0 0 0 0 0 0 0 0 0 0 0 0 0 0 0 0.25 0"/>
<feBlend mode="normal" in2="shape" result="effect1_innerShadow_12_3950"/>
</filter>
<clipPath id="clip0_12_3950">
<rect width="840" height="400" fill="white"/>
</clipPath>
</defs>
</svg>
