<svg width="255" height="256" viewBox="0 0 255 256" fill="none" xmlns="http://www.w3.org/2000/svg">
<path d="M248 204.5C241.478 198 213.5 181.5 201.5 174.5C189.5 167.5 183.5 172 173.5 177C163.5 182 157.701 188.515 148.5 186.5C139.298 184.552 123.097 167.065 105.5 149.5C87.9032 131.935 73 116.5 69.5 107.5C66 98.5 73.4998 93 78.5 83.5C83.5002 74 89.2664 63.7037 82 53C74.7336 42.2962 58.5 17.4999 52.5 8.49996C46.5 -0.500008 39.9402 0.0519937 34.5 1.99989C29.0598 3.94778 23 6.49989 16 12.4999C9 18.4999 2.99962 27 1.49985 36.5C7.00355e-05 46 -0.757641 67.3634 18.3941 101.5C37.5459 135.637 53.5502 153.887 78.4998 178.839C105.029 205.371 138.277 229.579 159.639 241.575C181 253.57 200 256 212 256C224 256 236.556 247.467 242.5 238.5C248.444 229.533 251.052 225.941 253 220.5C254.948 215.059 254.521 211 248 204.5Z" fill="white"/>
</svg>
