<svg width="188" height="188" viewBox="0 0 188 188" fill="none" xmlns="http://www.w3.org/2000/svg">
<g clip-path="url(#clip0_177_16157)">
<path d="M146.2 0H41.3C18.4906 0 0 18.4906 0 41.3V146.2C0 169.009 18.4906 187.5 41.3 187.5H146.2C169.009 187.5 187.5 169.009 187.5 146.2V41.3C187.5 18.4906 169.009 0 146.2 0Z" fill="url(#paint0_linear_177_16157)"/>
<path d="M93.7004 32.5C55.7004 32.5 24.9004 58.2 24.9004 89.8C24.9004 109.9 37.6004 128.5 58.3004 138.9C55.6004 145 51.5004 150.7 46.3004 155.7C56.5004 153.9 66.1004 150.2 74.3004 144.7C80.6004 146.3 87.2004 147.1 93.8004 147.1C131.8 147.1 162.6 121.4 162.6 89.8C162.6 58.1 131.8 32.5 93.8004 32.5H93.7004Z" fill="white"/>
<path d="M48.9082 106V74.7939H55.7542V100.246H68.1862V106H48.9082Z" fill="#45E660"/>
<path d="M73.1796 106V74.7939H80.0256V106H73.1796Z" fill="#45E660"/>
<path d="M87.033 106V74.7939H94.005L102.405 90.5859L105.513 97.4319H105.723C105.527 95.7799 105.317 93.9599 105.093 91.9719C104.897 89.9559 104.799 88.0239 104.799 86.1759V74.7939H111.309V106H104.337L95.979 90.1239L92.871 83.4039H92.661C92.801 85.0839 92.983 86.9039 93.207 88.8639C93.431 90.8239 93.543 92.7279 93.543 94.5759V106H87.033Z" fill="#45E660"/>
<path d="M118.4 106V74.7939H137.846V80.5059H125.246V87.0159H135.914V92.7699H125.246V100.246H138.308V106H118.4Z" fill="#45E660"/>
</g>
<defs>
<linearGradient id="paint0_linear_177_16157" x1="84.42" y1="170.82" x2="84.42" y2="17.94" gradientUnits="userSpaceOnUse">
<stop stop-color="#0CBD2A"/>
<stop offset="1" stop-color="#5BF675"/>
</linearGradient>
<clipPath id="clip0_177_16157">
<rect width="187.5" height="187.5" fill="white"/>
</clipPath>
</defs>
</svg>
