<svg width="194" height="260" viewBox="0 0 194 260" fill="none" xmlns="http://www.w3.org/2000/svg">
<path d="M37 259.5C37 229.5 52.5 215 52.5 215L141.5 204C155.9 219.2 161.833 247.333 163 259.5H37Z" fill="#808080"/>
<path d="M37 259.5C37 229.5 52.5 215 52.5 215L141.5 204C155.9 219.2 161.833 247.333 163 259.5M57.5 231V259.5M143 230V259.5" stroke="#666666" stroke-width="2"/>
<path d="M31.9996 35.0001C35.1997 55.4 58.9996 58.5001 70.4996 57.5001L82.9997 70.5002V56.0002C107.5 48.5002 108.953 30.4433 104 17.0001C100.5 7.50009 86.4996 0.240082 64.4996 2.00007C47 3.40002 28.7994 14.6001 31.9996 35.0001Z" fill="#E2E2E2" stroke="#666666" stroke-width="3" stroke-linejoin="round"/>
<path d="M130 40.9999C127.6 54.9999 139.333 64.1666 145.5 66.9999L143.5 78L154.5 70C157.833 70.8334 166 72.2 172 71C179.5 69.5 190.5 66 191 49C191.5 32 172 24 162 22.9999C150.557 21.8555 133 23.4999 130 40.9999Z" fill="#D9D9D9" stroke="#666666" stroke-width="3" stroke-linejoin="round"/>
<path d="M59.5001 27.5C62.3001 28.7 64.7496 26.9185 65.5 24.5001C66.2505 22.0818 69 19.5001 71 20.5001C73 21.5001 73.5 23.5 71 26C68.5 28.5 66 32.5001 66 36.0001C66 39.5357 68.5 42.0001 72.5 41.0001C77 39.8751 77.5 34.5 78.5 31C79.5 27.5 83.5 25.3504 83.5 20C83.5 14.6496 80.5 10.5003 74 8.50023C66.2773 6.12393 59.4999 10.9999 57.4999 15.4999C55.4999 19.9999 55 25.5714 59.5001 27.5Z" fill="#404040"/>
<circle cx="72" cy="48" r="5" fill="#404040"/>
<path d="M153.445 42.2841C155.099 44.0237 157.426 43.4961 158.722 41.979C160.017 40.4619 162.811 39.4484 163.947 40.7944C165.084 42.1405 164.824 43.7437 162.236 44.7757C159.649 45.8077 156.595 47.9256 155.506 50.4591C154.406 53.0184 155.449 55.5801 158.656 56.1006C162.263 56.6861 164.297 52.9507 166.11 50.7282C167.923 48.5057 171.487 48.194 173.151 44.321C174.816 40.4479 173.935 36.5111 169.852 33.0412C165.001 28.9187 158.578 30.34 155.73 32.9752C152.883 35.6105 150.788 39.4881 153.445 42.2841Z" fill="#404040"/>
<circle cx="156.117" cy="61.0122" r="3.93946" transform="rotate(23.2554 156.117 61.0122)" fill="#404040"/>
<mask id="path-9-inside-1_158_12114" fill="white">
<path d="M85.959 80.3457C89.8807 67.4362 100.539 58.9267 111.185 60.8691C121.961 62.8356 128.966 74.8275 127.868 88.498C149.71 98.6483 165.764 117.471 169.569 140.937C176.102 181.218 144.072 219.927 98.0273 227.395C51.9834 234.862 9.36103 208.26 2.82812 167.979C0.0277362 150.711 4.31373 133.732 13.752 119.38C6.46829 107.469 7.42393 93.3359 16.3691 86.7627C24.4308 80.8391 36.4145 82.942 45.4307 91.1074C54.1607 86.5297 63.9034 83.218 74.3701 81.5205C78.2641 80.889 82.1337 80.5022 85.959 80.3457Z"/>
</mask>
<path d="M85.959 80.3457C89.8807 67.4362 100.539 58.9267 111.185 60.8691C121.961 62.8356 128.966 74.8275 127.868 88.498C149.71 98.6483 165.764 117.471 169.569 140.937C176.102 181.218 144.072 219.927 98.0273 227.395C51.9834 234.862 9.36103 208.26 2.82812 167.979C0.0277362 150.711 4.31373 133.732 13.752 119.38C6.46829 107.469 7.42393 93.3359 16.3691 86.7627C24.4308 80.8391 36.4145 82.942 45.4307 91.1074C54.1607 86.5297 63.9034 83.218 74.3701 81.5205C78.2641 80.889 82.1337 80.5022 85.959 80.3457Z" fill="#D9D9D9"/>
<path d="M85.959 80.3457L86.0816 83.3432L88.2102 83.2561L88.8295 81.2177L85.959 80.3457ZM111.185 60.8691L111.723 57.9179L111.723 57.9179L111.185 60.8691ZM127.868 88.498L124.878 88.2579L124.711 90.3388L126.604 91.2186L127.868 88.498ZM169.569 140.937L172.531 140.456L172.531 140.456L169.569 140.937ZM98.0273 227.395L98.5076 230.356L98.5076 230.356L98.0273 227.395ZM2.82812 167.979L-0.133185 168.459L-0.133183 168.459L2.82812 167.979ZM13.752 119.38L16.2585 121.028L17.3041 119.438L16.3113 117.815L13.752 119.38ZM16.3691 86.7627L14.5928 84.3452L14.5927 84.3452L16.3691 86.7627ZM45.4307 91.1074L43.4168 93.3311L44.9691 94.7369L46.8238 93.7643L45.4307 91.1074ZM74.3701 81.5205L73.8899 78.5592L73.8899 78.5592L74.3701 81.5205ZM85.959 80.3457L88.8295 81.2177C92.4978 69.1422 102.065 62.2546 110.646 63.8204L111.185 60.8691L111.723 57.9179C99.014 55.5988 87.2636 65.7302 83.0885 79.4737L85.959 80.3457ZM111.185 60.8691L110.646 63.8204C119.331 65.4053 125.906 75.4595 124.878 88.2579L127.868 88.498L130.859 88.7382C132.027 74.1956 124.59 60.2659 111.723 57.9179L111.185 60.8691ZM127.868 88.498L126.604 91.2186C147.683 101.014 162.985 119.075 166.608 141.417L169.569 140.937L172.531 140.456C168.543 115.866 151.738 96.2824 129.132 85.7775L127.868 88.498ZM169.569 140.937L166.608 141.417C172.817 179.704 142.34 217.169 97.5471 224.433L98.0273 227.395L98.5076 230.356C145.803 222.686 179.387 182.733 172.531 140.456L169.569 140.937ZM98.0273 227.395L97.5471 224.433C52.7543 231.697 11.9988 205.785 5.78943 167.498L2.82812 167.979L-0.133183 168.459C6.72327 210.735 51.2124 238.026 98.5076 230.356L98.0273 227.395ZM2.82812 167.979L5.78943 167.498C3.12101 151.044 7.19096 134.817 16.2585 121.028L13.752 119.38L11.2454 117.732C1.4365 132.647 -3.06553 150.378 -0.133185 168.459L2.82812 167.979ZM13.752 119.38L16.3113 117.815C9.48611 106.654 10.9376 94.4768 18.1456 89.1802L16.3691 86.7627L14.5927 84.3452C3.91028 92.1949 3.45046 108.285 11.1926 120.945L13.752 119.38ZM16.3691 86.7627L18.1455 89.1802C24.6512 84.4 35.0318 85.7372 43.4168 93.3311L45.4307 91.1074L47.4445 88.8838C37.7973 80.1468 24.2104 77.2783 14.5928 84.3452L16.3691 86.7627ZM45.4307 91.1074L46.8238 93.7643C55.2679 89.3366 64.7023 86.1276 74.8504 84.4818L74.3701 81.5205L73.8899 78.5592C63.1044 80.3084 53.0535 83.7229 44.0375 88.4505L45.4307 91.1074ZM74.3701 81.5205L74.8504 84.4818C78.6253 83.8696 82.3756 83.4948 86.0816 83.3432L85.959 80.3457L85.8363 77.3482C81.8919 77.5096 77.9028 77.9084 73.8899 78.5592L74.3701 81.5205Z" fill="#BBBBBB" mask="url(#path-9-inside-1_158_12114)"/>
<path d="M21.4863 93.7266C26.3376 90.1618 33.2495 90.8139 39.0615 94.7832C30.9428 99.9194 23.8866 106.21 18.1719 113.316C14.887 105.821 16.032 97.7345 21.4863 93.7266Z" fill="#9C9C9C"/>
<path d="M94.1045 80.3613C97.1912 73.5663 103.315 69.3624 109.432 70.4785C115.622 71.6083 119.894 77.8391 120.295 85.4092C112.107 82.5155 103.28 80.7737 94.1045 80.3613Z" fill="#9C9C9C"/>
<ellipse cx="91.2481" cy="176.285" rx="17.9557" ry="22.3086" transform="rotate(-15.4442 91.2481 176.285)" fill="#F1F1F1"/>
<path d="M92.4981 158.216C88.7082 157.282 82.3402 159.501 81.1286 162.49C79.917 165.478 87.6124 169.706 89.7914 168.9C91.9703 168.094 96.2879 159.15 92.4981 158.216Z" fill="#666666"/>
<circle cx="94" cy="147" r="6" fill="#404040"/>
<circle cx="74" cy="152" r="6" fill="#404040"/>
</svg>
